# This file uses centimeters as units for non-parametric coordinates.

mtllib CO_Mid_Building_BO.mtl
g default
v 25.000000 10.672351 133.330107
v 217.010249 10.672351 159.407174
v 25.000000 138.935722 133.330107
v 217.010249 138.935722 159.407174
v 25.000000 138.935722 51.077068
v 217.010249 138.935722 25.000000
v 25.000000 10.672351 51.077068
v 217.010249 10.672351 25.000000
v 25.000000 138.935722 133.330107
v 217.010249 138.935722 159.407174
v 217.010249 138.935722 25.000000
v 25.000000 138.935722 51.077068
v 63.402050 181.690183 133.330107
v 217.010249 181.690183 159.407174
v 217.010249 181.690183 25.000000
v 63.402050 181.690183 51.077068
v 63.402050 245.821875 133.330107
v 217.010249 245.821875 159.407174
v 217.010249 245.821875 25.000000
v 63.402050 245.821875 51.077068
v 63.402050 288.576336 133.330107
v 217.010249 288.576336 159.407174
v 217.010249 288.576336 25.000000
v 63.402050 288.576336 51.077068
v 63.402050 438.216937 133.330107
v 63.402050 438.216937 51.077068
v 101.804100 438.216961 159.407174
v 217.010249 438.216961 159.407174
v 217.010249 438.216961 25.000000
v 101.804100 438.216961 25.000000
v 134.078324 502.348640 159.407174
v 217.010249 502.348640 159.407174
v 217.010249 502.348640 25.000000
v 134.078324 502.348640 25.000000
v 134.078324 480.971398 159.407174
v 134.078324 480.971398 25.000000
v 217.010249 480.971398 25.000000
v 217.010249 480.971398 159.407174
v 101.804246 288.576336 25.000000
v 101.804246 245.821875 25.000000
v 101.804246 181.690183 25.000000
v 101.803949 138.935722 25.000000
v 101.803949 138.935722 25.000000
v 101.803949 10.672351 25.000000
v 101.803949 10.672351 159.407174
v 101.803949 138.935722 159.407174
v 101.803949 138.935722 159.407174
v 101.804246 181.690183 159.407174
v 101.804246 245.821875 159.407174
v 101.804246 288.576336 159.407174
vt 0.375000 0.000000
vt 0.625000 0.000000
vt 0.375000 0.250000
vt 0.625000 0.250000
vt 0.375000 0.500000
vt 0.625000 0.500000
vt 0.375000 0.750000
vt 0.625000 0.750000
vt 0.875000 0.000000
vt 0.875000 0.250000
vt 0.125000 0.000000
vt 0.125000 0.250000
vt 0.375000 0.250000
vt 0.625000 0.250000
vt 0.625000 0.500000
vt 0.375000 0.500000
vt 0.375000 0.250000
vt 0.625000 0.250000
vt 0.625000 0.500000
vt 0.375000 0.500000
vt 0.375000 0.250000
vt 0.625000 0.250000
vt 0.625000 0.500000
vt 0.375000 0.500000
vt 0.375000 0.250000
vt 0.625000 0.250000
vt 0.625000 0.500000
vt 0.375000 0.500000
vt 0.375000 0.250000
vt 0.375000 0.500000
vt 0.375000 0.250000
vt 0.625000 0.250000
vt 0.625000 0.500000
vt 0.375000 0.500000
vt 0.375000 0.250000
vt 0.625000 0.250000
vt 0.625000 0.500000
vt 0.375000 0.500000
vt 0.375000 0.250000
vt 0.375000 0.500000
vt 0.625000 0.500000
vt 0.625000 0.250000
vt 0.436061 0.500000
vt 0.436061 0.500000
vt 0.436061 0.500000
vt 0.436061 0.500000
vt 0.436061 0.500000
vt 0.436061 0.750000
vt 0.436061 0.000000
vt 0.436061 0.250000
vt 0.436061 0.250000
vt 0.436061 0.250000
vt 0.436061 0.250000
vt 0.436061 0.250000
vn -0.321502 0.000000 0.946909
vn -0.134575 0.000000 0.990903
vn -0.134575 0.000000 0.990903
vn -0.321502 0.000000 0.946909
vn 0.000000 1.000000 0.000000
vn 0.000000 1.000000 0.000000
vn 0.000000 1.000000 0.000000
vn 0.000000 1.000000 0.000000
vn -0.321502 0.000000 -0.946909
vn -0.134575 0.000000 -0.990903
vn -0.134575 0.000000 -0.990903
vn -0.321502 0.000000 -0.946909
vn 1.000000 0.000000 0.000000
vn 1.000000 0.000000 0.000000
vn 1.000000 0.000000 0.000000
vn 1.000000 0.000000 0.000000
vn -1.000000 0.000000 0.000000
vn -1.000000 0.000000 0.000000
vn -1.000000 0.000000 0.000000
vn -1.000000 0.000000 0.000000
vn 0.000000 0.000000 0.000000
vn 0.000000 0.000000 0.000000
vn 0.000000 0.000000 0.000000
vn 0.000000 0.000000 0.000000
vn 0.000000 0.000000 0.000000
vn 0.000000 0.000000 0.000000
vn 0.000000 0.000000 0.000000
vn 0.000000 0.000000 0.000000
vn 0.000000 0.000000 0.000000
vn 0.000000 0.000000 0.000000
vn 0.000000 0.000000 0.000000
vn 0.000000 0.000000 0.000000
vn 0.000000 0.000000 0.000000
vn 0.000000 0.000000 0.000000
vn 0.000000 0.000000 0.000000
vn 0.000000 0.000000 0.000000
vn -0.405514 0.182118 0.895763
vn -0.148878 0.066862 0.986593
vn -0.159541 0.028660 0.986775
vn -0.481488 0.098699 0.870878
vn 1.000000 0.000000 0.000000
vn 1.000000 0.000000 0.000000
vn 1.000000 0.000000 0.000000
vn 1.000000 0.000000 0.000000
vn -0.148878 0.066862 -0.986593
vn -0.405514 0.182118 -0.895763
vn -0.481488 0.098699 -0.870878
vn -0.159541 0.028660 -0.986775
vn -0.743960 0.668225 0.000000
vn -0.743960 0.668225 0.000000
vn -0.743960 0.668225 0.000000
vn -0.743960 0.668225 0.000000
vn -0.167369 0.000000 0.985894
vn -0.561773 0.000000 0.827291
vn 1.000000 0.000000 0.000000
vn 1.000000 0.000000 0.000000
vn -0.561773 0.000000 -0.827291
vn -0.167369 0.000000 -0.985894
vn -1.000000 0.000000 0.000000
vn -1.000000 0.000000 0.000000
vn -1.000000 0.000000 0.000000
vn -1.000000 0.000000 0.000000
vn -0.167369 -0.000000 0.985894
vn -0.561774 -0.000000 0.827291
vn 1.000000 0.000000 0.000000
vn 1.000000 0.000000 0.000000
vn -0.561774 -0.000000 -0.827291
vn -0.167369 -0.000000 -0.985894
vn -1.000000 0.000000 0.000000
vn -1.000000 0.000000 0.000000
vn 0.000000 0.000000 -1.000000
vn -0.148433 -0.000000 -0.988922
vn 0.000000 0.000000 -1.000000
vn -0.901525 0.432728 0.000000
vn -0.901525 0.432728 0.000000
vn -0.148433 -0.000000 0.988922
vn -0.561774 -0.000000 0.827291
vn 1.000000 0.000000 0.000000
vn 1.000000 0.000000 0.000000
vn 1.000000 0.000000 0.000000
vn 1.000000 0.000000 0.000000
vn -0.648232 0.761443 0.000000
vn -0.648232 0.761443 0.000000
vn 0.000000 0.000000 1.000000
vn 0.000000 0.000000 1.000000
vn 0.000000 0.000000 1.000000
vn 1.000000 0.000000 0.000000
vn 1.000000 0.000000 0.000000
vn 0.000000 0.000000 -1.000000
vn 0.000000 0.000000 -1.000000
vn -0.893263 0.449534 0.000000
vn -0.893263 0.449534 0.000000
vn -1.000000 0.000000 0.000000
vn -1.000000 0.000000 0.000000
vn 0.000000 0.000000 -1.000000
vn 0.000000 0.000000 -1.000000
vn 1.000000 0.000000 0.000000
vn 1.000000 0.000000 0.000000
vn 0.000000 0.000000 1.000000
vn 0.000000 0.000000 1.000000
vn 0.000000 0.000000 -1.000000
vn 0.000000 0.000000 -1.000000
vn 0.000000 0.000000 -1.000000
vn 0.000000 0.000000 0.000000
vn 0.000000 0.000000 0.000000
vn 0.000000 0.000000 0.000000
vn 0.000000 0.000000 0.000000
vn 0.000000 0.000000 -1.000000
vn 0.000000 0.000000 -1.000000
vn 0.000000 0.000000 1.000000
vn 0.000000 0.000000 1.000000
vn 0.000000 0.000000 0.000000
vn 0.000000 0.000000 0.000000
vn 0.000000 0.000000 0.000000
vn 0.000000 0.000000 0.000000
vn 0.000000 0.000000 1.000000
vn 0.000000 0.000000 1.000000
vn 0.000000 0.000000 1.000000
vn 0.000000 0.000000 1.000000
vn -0.561774 -0.000000 -0.827291
s 1
g pCube4
usemtl initialShadingGroup
f 1/1/1 45/49/2 46/50/3 3/3/4
s off
f 31/35/5 32/36/6 33/37/7 34/38/8
s 2
f 5/5/9 43/47/10 44/48/11 7/7/12
s off
f 2/2/13 8/9/14 6/10/15 4/4/16
f 7/11/17 1/1/18 3/3/19 5/12/20
f 3/3/21 46/50/22 47/51/23 9/13/24
f 4/4/25 6/6/26 11/15/27 10/14/28
f 43/47/29 5/5/30 12/16/31 42/46/32
f 5/5/33 3/3/34 9/13/35 12/16/36
s 3
f 9/13/37 47/51/38 48/52/39 13/17/40
s 4
f 10/14/41 11/15/42 15/19/43 14/18/44
s 5
f 42/46/45 12/16/46 16/20/47 41/45/48
s off
f 12/16/49 9/13/50 13/17/51 16/20/52
s 3
f 13/17/40 48/52/39 49/53/53 17/21/54
s 4
f 14/18/44 15/19/43 19/23/55 18/22/56
s 5
f 41/45/48 16/20/47 20/24/57 40/44/58
s 6
f 16/20/59 13/17/60 17/21/61 20/24/62
s 3
f 17/21/54 49/53/53 50/54/63 21/25/64
s 4
f 18/22/56 19/23/55 23/27/65 22/26/66
s 5
f 40/44/58 20/24/57 24/28/67 39/43/68
s 6
f 20/24/62 17/21/61 21/25/69 24/28/70
s 5
f 23/27/71 39/43/68 30/34/72 29/33/73
s 6
f 24/28/70 21/25/69 25/29/74 26/30/75
s 3
f 50/54/63 27/31/76 25/29/77 21/25/64
s 7
f 23/27/78 29/33/79 28/32/80 22/26/81
s 6
f 26/30/75 25/29/74 27/31/82 30/34/83
s 3
f 27/31/76 28/32/84 38/42/85 35/39/86
s 7
f 28/32/80 29/33/79 37/41/87 38/42/88
s 5
f 29/33/73 30/34/72 36/40/89 37/41/90
s 6
f 30/34/83 27/31/82 35/39/91 36/40/92
f 36/40/92 35/39/91 31/35/93 34/38/94
s 5
f 37/41/90 36/40/89 34/38/95 33/37/96
s 7
f 38/42/88 37/41/87 33/37/97 32/36/98
s 3
f 35/39/86 38/42/85 32/36/99 31/35/100
s 5
f 19/23/101 40/44/58 39/43/68 23/27/71
f 15/19/102 41/45/48 40/44/58 19/23/101
f 11/15/103 42/46/45 41/45/48 15/19/102
s off
f 6/6/104 43/47/105 42/46/106 11/15/107
s 2
f 44/48/11 43/47/10 6/6/108 8/8/109
s 1
f 46/50/3 45/49/2 2/2/110 4/4/111
s off
f 47/51/112 46/50/113 4/4/114 10/14/115
s 3
f 48/52/39 47/51/38 10/14/116 14/18/117
f 49/53/53 48/52/39 14/18/117 18/22/118
f 50/54/63 49/53/53 18/22/118 22/26/119
f 22/26/119 28/32/84 27/31/76 50/54/63
s 5
f 30/34/72 39/43/68 24/28/67 26/30/120
