# This file uses centimeters as units for non-parametric coordinates.

mtllib CO_Tall_Building_BO.mtl
g default
v 200.000003 -0.000000 -31.250000
v 200.000003 -0.000000 -218.750164
v 200.000003 450.000520 -218.750164
v 200.000003 450.000520 -31.250000
v 200.000003 175.000384 -218.750164
v 200.000003 175.000384 -31.250000
v 200.000003 650.000658 -218.750164
v 200.000003 650.000658 -31.250000
v 200.000003 525.000267 -218.750164
v 200.000003 525.000267 -31.250000
v 175.000086 556.250181 -234.736457
v 175.000086 618.750277 -234.736457
v 175.000086 556.250181 -15.263647
v 175.000086 618.750343 -15.263647
v 45.533344 -0.000000 -50.750732
v 31.250000 -0.000000 -66.950642
v 45.533344 174.999583 -50.750732
v 31.250000 174.999583 -66.950642
v 45.648456 704.453039 -50.736204
v 31.250000 709.999962 -67.066684
v 200.000003 878.105812 -31.250000
v 31.250000 -0.000000 -183.049396
v 45.533344 -0.000000 -199.249387
v 45.533344 174.999583 -199.249387
v 31.250000 174.999583 -183.049396
v 200.000003 878.105812 -218.750164
v 31.250000 709.999962 -182.933420
v 45.648456 704.453039 -199.263930
v 31.250000 449.999485 -183.049396
v 45.533344 449.999485 -199.249387
v 45.623675 524.263000 -199.260801
v 31.250000 524.999700 -182.958350
v 45.533344 449.999485 -50.750732
v 31.250000 449.999485 -66.950642
v 31.250000 524.999700 -67.041703
v 45.623675 524.263000 -50.739333
v 31.250000 649.999323 -182.958350
v 45.623675 650.736122 -199.260801
v 45.623675 650.736122 -50.739333
v 31.250000 649.999323 -67.041703
v 19.057624 556.943855 -205.166876
v 5.451933 556.249714 -190.226719
v 19.057631 618.055668 -205.166876
v 5.451933 618.749609 -190.226719
v 19.057624 556.943855 -44.833228
v 5.451933 556.249714 -59.773386
v 19.057631 618.055668 -44.833228
v 5.451933 618.749609 -59.773386
v 186.916173 885.268593 -47.545269
v 186.916173 885.268593 -202.454910
vt 0.625000 0.250000
vt 0.375000 0.274839
vt 0.396160 0.500000
vt 0.396331 0.500000
vt 0.396161 0.250000
vt 0.625000 0.250000
vt 0.625000 0.500000
vt 0.396160 0.500000
vt 0.375000 0.475161
vt 0.375000 0.274840
vt 0.625000 0.500000
vt 0.400497 0.500000
vt 0.396160 0.250000
vt 0.625000 0.250000
vt 0.375000 0.475160
vt 0.375000 0.274998
vt 0.625000 0.500000
vt 0.396160 0.500000
vt 0.396160 0.250000
vt 0.625000 0.250000
vt 0.375000 0.475160
vt 0.375000 0.274840
vt 0.625000 0.500000
vt 0.400497 0.250000
vt 0.375000 0.475002
vt 0.625000 0.500000
vt 0.395062 0.500000
vt 0.395062 0.250000
vt 0.625000 0.250000
vt 0.375000 0.480086
vt 0.375000 0.269914
vt 0.625000 0.500000
vt 0.395062 0.500000
vt 0.400496 0.500000
vt 0.625000 0.500000
vt 0.400497 0.250000
vt 0.625000 0.250000
vt 0.625000 0.250000
vt 0.395062 0.250000
vt 0.375000 0.475003
vt 0.375000 0.269914
vt 0.375000 0.274997
vt 0.375000 0.480086
vt 0.396331 0.250000
vt 0.624957 0.250044
vt 0.624951 0.499947
vt 0.375000 0.275041
vt 0.605617 0.269966
vt 0.375000 0.474959
vt 0.605617 0.480034
vn 1.000000 0.000000 0.000000
vn 1.000000 0.000000 0.000000
vn 1.000000 0.000000 0.000000
vn 1.000000 0.000000 0.000000
vn 1.000000 0.000000 0.000000
vn 1.000000 0.000000 0.000000
vn 0.999947 0.000000 -0.010271
vn 0.999947 0.000000 0.010271
vn 0.999983 0.000000 0.005835
vn 0.999983 0.000000 -0.005834
vn 1.000000 0.000000 0.000000
vn 1.000000 0.000000 0.000000
vn 0.538727 0.000000 -0.842480
vn 0.538727 0.000000 -0.842480
vn 0.538729 0.000000 0.842479
vn 0.538728 0.000000 0.842479
vn -0.750083 0.000000 0.661343
vn -0.750083 0.000000 0.661343
vn -0.750083 0.000000 0.661343
vn -0.750083 0.000000 0.661343
vn -0.750081 0.000173 0.661345
vn -0.750081 0.000173 0.661345
vn -0.664218 0.297056 0.685983
vn -0.609341 0.413072 0.676812
vn -0.750062 0.000291 0.661367
vn -0.750062 0.000291 0.661367
vn -0.589621 0.448809 0.671504
vn -0.589621 0.448809 0.671504
vn -0.750085 0.000000 -0.661341
vn -0.750085 0.000000 -0.661341
vn -0.750085 0.000000 -0.661341
vn -0.750085 0.000000 -0.661341
vn -0.750083 0.000173 -0.661343
vn -0.750083 0.000173 -0.661343
vn -0.609341 0.413072 -0.676812
vn -0.664219 0.297055 -0.685982
vn -0.750063 0.000290 -0.661366
vn -0.750063 0.000290 -0.661366
vn -0.750076 0.000807 -0.661351
vn -0.750076 0.000807 -0.661351
vn -0.191747 -0.447019 -0.873731
vn -0.596948 -0.598943 -0.533780
vn -0.596948 -0.598943 -0.533780
vn -0.214763 -0.458521 -0.862343
vn -0.750074 0.000807 0.661353
vn -0.750074 0.000807 0.661353
vn -0.596947 -0.598942 0.533783
vn -0.191747 -0.447020 0.873731
vn -0.214762 -0.458521 0.862343
vn -0.596947 -0.598942 0.533783
vn -0.596947 0.598948 -0.533774
vn -0.191748 0.447020 -0.873731
vn -0.214768 0.458524 -0.862340
vn -0.596947 0.598948 -0.533774
vn -0.191748 0.447022 0.873730
vn -0.596947 0.598947 0.533776
vn -0.596947 0.598947 0.533776
vn -0.214768 0.458525 0.862339
vn -0.739355 0.000000 -0.673316
vn -0.739355 0.000000 -0.673316
vn -0.739355 0.000000 -0.673316
vn -0.739355 0.000000 -0.673316
vn -0.739355 0.000000 0.673316
vn -0.739355 0.000000 0.673316
vn -0.739355 0.000000 0.673316
vn -0.739355 0.000000 0.673316
vn -0.747681 0.664058 0.000000
vn -0.747681 0.664058 0.000000
vn -0.747681 0.664058 0.000000
vn -0.747681 0.664058 0.000000
vn -0.125251 0.000000 0.992125
vn -0.125251 0.000000 0.992125
vn -0.125251 0.000000 0.992125
vn -0.125251 0.000000 0.992125
vn -0.125252 0.000000 -0.992125
vn -0.125252 0.000000 -0.992125
vn -0.125252 0.000000 -0.992125
vn -0.125252 0.000000 -0.992125
vn -1.000000 0.000000 0.000000
vn -1.000000 0.000000 0.000000
vn -1.000000 0.000000 0.000000
vn -1.000000 0.000000 0.000000
vn -0.125252 -0.000000 -0.992125
vn -0.125252 -0.000000 -0.992125
vn -0.125252 -0.000000 -0.992125
vn -0.125252 -0.000000 -0.992125
vn -0.125251 0.000000 0.992125
vn -0.125251 0.000000 0.992125
vn -0.125251 0.000000 0.992125
vn -0.125251 0.000000 0.992125
vn -1.000000 -0.000000 0.000000
vn -1.000000 -0.000000 0.000000
vn -1.000000 -0.000000 0.000000
vn -1.000000 -0.000000 0.000000
vn -0.125252 -0.000000 -0.992125
vn -0.125252 -0.000000 -0.992125
vn -0.125252 -0.000000 -0.992125
vn -0.125252 -0.000000 -0.992125
vn -0.125251 -0.000000 0.992125
vn -0.125251 -0.000000 0.992125
vn -0.125251 -0.000000 0.992125
vn -0.125251 -0.000000 0.992125
vn -1.000000 -0.000000 0.000000
vn -1.000000 -0.000000 0.000000
vn -1.000000 -0.000000 0.000000
vn -1.000000 -0.000000 0.000000
vn -0.186299 0.000000 -0.982493
vn -0.186299 0.000000 -0.982493
vn -0.186299 0.000000 -0.982493
vn -0.186299 0.000000 -0.982493
vn -0.186299 0.000000 0.982493
vn -0.186299 0.000000 0.982493
vn -0.186299 0.000000 0.982493
vn -0.186299 0.000000 0.982493
vn -1.000000 0.000000 0.000000
vn -1.000000 0.000000 0.000000
vn -1.000000 0.000000 0.000000
vn -1.000000 0.000000 0.000000
vn -0.141582 -0.421004 -0.895941
vn -0.141582 -0.421004 -0.895941
vn -0.141585 0.421005 -0.895940
vn -0.141585 0.421005 -0.895940
vn -0.141582 -0.421004 0.895941
vn -0.141582 -0.421004 0.895941
vn -0.141585 0.421007 0.895939
vn -0.141585 0.421007 0.895939
vn -0.771170 -0.636630 0.000000
vn -0.771170 -0.636630 0.000000
vn -0.771170 -0.636630 0.000000
vn -0.771170 -0.636630 0.000000
vn -0.771167 0.636633 0.000000
vn -0.771167 0.636633 0.000000
vn -0.771167 0.636633 0.000000
vn -0.771167 0.636633 0.000000
vn -0.589621 0.448809 -0.671504
vn -0.589621 0.448809 -0.671504
vn 0.480202 0.877158 0.000000
vn 0.480203 0.877158 0.000000
vn 0.480202 0.877158 0.000000
vn 0.480202 0.877158 0.000000
vn 1.000000 0.000000 0.000000
vn 1.000000 0.000000 0.000000
vn 1.000000 0.000000 0.000000
vn 1.000000 0.000000 0.000000
s off
g pCube1
usemtl initialShadingGroup
f 1/1/1 2/7/2 5/17/3 6/6/4
s 1
f 4/20/5 3/11/6 9/32/7 10/14/8
f 8/38/9 7/23/10 26/46/11 21/45/12
f 10/14/8 9/32/7 7/23/10 8/38/9
f 7/23/10 9/32/7 11/26/13 12/35/14
f 10/14/8 8/38/9 14/29/15 13/37/16
s 2
f 16/2/17 15/5/18 17/19/19 18/10/20
f 18/10/20 17/19/19 33/13/21 34/22/22
s 3
f 19/44/23 20/47/24 40/42/25 39/24/26
f 20/47/24 19/44/23 21/45/27 49/48/28
s 4
f 23/3/29 22/9/30 25/21/31 24/8/32
f 24/8/32 25/21/31 29/15/33 30/18/34
s 5
f 27/49/35 28/4/36 38/34/37 37/25/38
s 4
f 30/18/34 29/15/33 32/40/39 31/12/40
s 6
f 31/12/41 32/40/42 42/30/43 41/33/44
s 2
f 34/22/22 33/13/21 36/36/45 35/16/46
s 7
f 35/16/47 36/36/48 45/28/49 46/41/50
s 8
f 37/25/51 38/34/52 43/27/53 44/43/54
s 9
f 39/24/55 40/42/56 48/31/57 47/39/58
s off
f 41/33/59 42/30/60 44/43/61 43/27/62
f 46/41/63 45/28/64 47/39/65 48/31/66
f 20/47/67 49/48/68 50/50/69 27/49/70
s 10
f 17/19/71 15/5/72 1/1/73 6/6/74
s 11
f 2/7/75 23/3/76 24/8/77 5/17/78
s 12
f 25/21/79 22/9/80 16/2/81 18/10/82
s 11
f 3/11/83 30/18/84 31/12/85 9/32/86
s 10
f 33/13/87 4/20/88 10/14/89 36/36/90
s 12
f 29/15/91 34/22/92 35/16/93 32/40/94
s 11
f 5/17/78 24/8/77 30/18/84 3/11/83
s 10
f 17/19/71 6/6/74 4/20/88 33/13/87
s 12
f 25/21/79 18/10/82 34/22/92 29/15/91
s off
f 7/23/95 38/34/96 28/4/97 26/46/98
f 39/24/99 8/38/100 21/45/101 19/44/102
f 37/25/103 40/42/104 20/47/105 27/49/106
f 11/26/107 41/33/108 43/27/109 12/35/110
f 45/28/111 13/37/112 14/29/113 47/39/114
f 42/30/115 46/41/116 48/31/117 44/43/118
s 6
f 9/32/119 31/12/41 41/33/44 11/26/120
s 8
f 38/34/52 7/23/121 12/35/122 43/27/53
s 7
f 36/36/48 10/14/123 13/37/124 45/28/49
s 9
f 8/38/125 39/24/55 47/39/58 14/29/126
s off
f 32/40/127 35/16/128 46/41/129 42/30/130
f 40/42/131 37/25/132 44/43/133 48/31/134
s 5
f 50/50/135 26/46/136 28/4/36 27/49/35
s off
f 49/48/137 21/45/138 26/46/139 50/50/140
f 4/20/141 6/6/142 5/17/143 3/11/144
