# This file uses centimeters as units for non-parametric coordinates.

mtllib MC_Mid_Building_BO.mtl
g default
v 15.489995 0.000000 -15.489995
v 125.000000 0.000000 -125.000000
v 25.000000 322.382589 -25.000000
v 125.000000 322.382589 -125.000000
v 25.000000 322.382589 -225.000000
v 225.000000 322.382589 -225.000000
v 15.489995 0.000000 -234.510016
v 234.510016 0.000000 -234.510016
v 125.000000 322.382589 -25.000000
v 125.000000 322.382589 -225.000000
v 125.000000 0.000000 -234.510016
v 125.000000 0.000000 -15.489995
v 225.000000 322.382589 -125.000000
v 25.000000 322.382589 -125.000000
v 15.489995 0.000000 -125.000000
v 234.510016 0.000000 -125.000000
v 32.693851 356.797878 -32.693851
v 125.000000 356.797878 -32.693851
v 125.000000 356.797878 -125.000000
v 32.693851 356.797878 -125.000000
v 217.306137 356.797878 -125.000000
v 217.306137 356.797878 -217.306137
v 125.000000 356.797878 -217.306137
v 32.693851 356.797878 -217.306137
v 12.455463 334.933819 -18.705475
v 136.661422 334.933819 -18.705475
v 136.661422 356.797878 -18.705475
v 12.455463 356.797878 -18.705475
v 136.661422 334.933819 -113.338566
v 136.661422 356.797878 -113.338566
v 12.455463 334.933819 -125.167716
v 12.455463 356.797878 -125.167716
v 231.294537 334.933819 -113.338566
v 231.294537 356.797878 -113.338566
v 231.294537 334.933819 -237.544465
v 231.294537 356.797878 -237.544465
v 124.832284 334.933819 -237.544584
v 124.832284 356.797878 -237.544584
v 12.455463 334.933819 -237.544465
v 12.455463 356.797878 -237.544465
v 125.000000 53.711435 -125.000000
v 125.000000 53.711435 -15.489995
v 15.489995 53.711435 -15.489995
v 15.489995 53.711435 -125.000000
v 15.489995 53.711435 -234.510016
v 125.000000 53.711435 -234.510016
v 234.510016 53.711435 -234.510016
v 234.510016 53.711435 -125.000000
v 125.000000 62.601554 -125.000000
v 125.000000 62.601554 -25.000000
v 25.000000 62.601554 -25.000000
v 25.000000 62.601550 -125.000000
v 25.000000 62.601550 -225.000000
v 125.000000 62.601550 -225.000000
v 225.000000 62.601550 -225.000000
v 225.000000 62.601554 -125.000000
v 32.693851 374.576144 -32.693851
v 125.000000 374.576144 -32.693851
v 125.000000 374.576144 -125.000000
v 32.693851 374.576144 -125.000000
v 217.306137 374.576144 -125.000000
v 217.306137 374.576144 -217.306137
v 125.000000 374.576144 -217.306137
v 32.693851 374.576144 -217.306137
vt 0.375000 0.000000
vt 0.578505 0.049344
vt 0.375000 0.250000
vt 0.539527 0.337128
vt 0.375000 0.500000
vt 0.625000 0.500000
vt 0.375000 0.750000
vt 0.625000 0.750000
vt 0.875000 0.000000
vt 0.875000 0.250000
vt 0.125000 0.000000
vt 0.125000 0.250000
vt 0.503078 0.246287
vt 0.499147 0.500000
vt 0.499147 0.750000
vt 0.512837 -0.013310
vt 0.625000 0.376653
vt 0.751653 0.250000
vt 0.248347 0.250000
vt 0.375000 0.376653
vt 0.248347 0.000000
vt 0.751653 0.000000
vt 0.375000 0.250000
vt 0.503078 0.246287
vt 0.539527 0.337128
vt 0.375000 0.376653
vt 0.625000 0.376653
vt 0.625000 0.500000
vt 0.499147 0.500000
vt 0.375000 0.500000
vt 0.375000 0.250000
vt 0.503078 0.246287
vt 0.503078 0.246287
vt 0.375000 0.250000
vt 0.539527 0.337128
vt 0.539527 0.337128
vt 0.375000 0.376653
vt 0.375000 0.376653
vt 0.625000 0.376653
vt 0.625000 0.376653
vt 0.625000 0.500000
vt 0.625000 0.500000
vt 0.499147 0.500000
vt 0.499147 0.500000
vt 0.375000 0.500000
vt 0.375000 0.500000
vt 0.563613 0.159294
vt 0.509109 0.085871
vt 0.375000 0.095514
vt 0.248347 0.095514
vt 0.125000 0.095514
vt 0.375000 0.654486
vt 0.499147 0.654486
vt 0.625000 0.654486
vt 0.875000 0.095514
vt 0.751653 0.095514
vt 0.561148 0.177492
vt 0.508492 0.102287
vt 0.375000 0.111324
vt 0.248347 0.111324
vt 0.125000 0.111324
vt 0.375000 0.638676
vt 0.499147 0.638676
vt 0.625000 0.638676
vt 0.875000 0.111324
vt 0.751653 0.111324
vt 0.375000 0.250000
vt 0.503078 0.246287
vt 0.539527 0.337128
vt 0.375000 0.376653
vt 0.625000 0.376653
vt 0.625000 0.500000
vt 0.499147 0.500000
vt 0.375000 0.500000
vn 0.000000 0.000000 1.000000
vn 0.707107 0.000000 0.707107
vn 0.681166 0.105925 0.724426
vn 0.000000 0.098010 0.995185
vn 0.000000 1.000000 0.000000
vn 0.000000 1.000000 0.000000
vn 0.000000 1.000000 0.000000
vn 0.000000 1.000000 0.000000
vn 0.000000 0.098011 -0.995185
vn 0.000000 0.144680 -0.989478
vn 0.000000 0.000000 -1.000000
vn 0.000000 0.000000 -1.000000
vn 0.000000 0.000000 1.000000
vn 0.707107 0.000000 0.707107
vn 0.724426 0.105925 0.681166
vn 0.000000 0.000000 1.000000
vn -1.000000 0.000000 0.000000
vn -1.000000 0.000000 0.000000
vn -0.995185 0.098011 -0.000000
vn -0.989478 0.144680 -0.000000
vn 0.000000 0.098011 -0.995185
vn 0.000000 0.000000 -1.000000
vn 1.000000 0.000000 0.000000
vn 1.000000 0.000000 0.000000
vn 0.000000 1.000000 0.000000
vn 0.000000 1.000000 0.000000
vn 0.000000 1.000000 0.000000
vn 0.000000 1.000000 0.000000
vn -1.000000 0.000000 0.000000
vn -0.995185 0.098010 0.000000
vn 1.000000 0.000000 0.000000
vn 0.995185 0.098011 -0.000000
vn 0.000000 0.000000 1.000000
vn 0.000000 0.000000 1.000000
vn 0.000000 0.000000 1.000000
vn 0.000000 0.000000 1.000000
vn 1.000000 0.000000 0.000000
vn 1.000000 0.000000 0.000000
vn 1.000000 0.000000 0.000000
vn 1.000000 0.000000 0.000000
vn -1.000000 0.000000 0.000000
vn -1.000000 0.000000 0.000000
vn -1.000000 0.000000 0.000000
vn -1.000000 0.000000 0.000000
vn 0.000000 0.000000 1.000000
vn 0.000000 0.000000 1.000000
vn 0.000000 0.000000 1.000000
vn 0.000000 0.000000 1.000000
vn 1.000000 0.000000 0.000000
vn 1.000000 0.000000 0.000000
vn 1.000000 0.000000 0.000000
vn 1.000000 0.000000 0.000000
vn 0.000001 0.000000 -1.000000
vn 0.000000 0.000000 -1.000000
vn 0.000000 0.000000 -1.000000
vn 0.000001 0.000000 -1.000000
vn -0.000001 0.000000 -1.000000
vn -0.000001 0.000000 -1.000000
vn -1.000000 0.000000 0.000000
vn -1.000000 0.000000 0.000000
vn -0.433964 -0.711135 0.553139
vn 0.434414 -0.692477 0.575986
vn 0.519944 -0.716396 0.465226
vn -0.524792 -0.737601 0.424898
vn 0.000000 1.000000 -0.000001
vn 0.000000 1.000000 -0.000001
vn 0.000000 1.000000 -0.000000
vn 0.000000 1.000000 -0.000001
vn 0.428237 -0.795755 0.428237
vn 0.428237 -0.795755 0.428237
vn 0.000000 1.000000 -0.000000
vn 0.000000 1.000000 -0.000000
vn -0.707295 -0.706918 0.000000
vn -0.707295 -0.706918 0.000000
vn 0.000000 1.000000 0.000000
vn 0.000000 1.000000 0.000000
vn 0.575985 -0.692478 0.434414
vn 0.465225 -0.716397 0.519943
vn 0.000000 1.000000 -0.000000
vn 0.000000 1.000000 -0.000000
vn 0.553138 -0.711135 -0.433964
vn 0.424898 -0.737601 -0.524792
vn 0.000000 1.000000 -0.000000
vn 0.000000 1.000000 -0.000000
vn 0.000000 -0.706918 -0.707296
vn -0.000000 -0.706918 -0.707296
vn 0.000000 1.000000 -0.000000
vn 0.000000 1.000000 -0.000000
vn -0.408393 -0.816351 -0.408394
vn -0.408394 -0.816351 -0.408393
vn 0.000000 1.000000 0.000000
vn 0.000000 1.000000 0.000000
vn 0.712152 0.025972 0.701545
vn 1.000000 0.000000 0.000000
vn 0.000000 0.049653 0.998766
vn -0.998766 0.049653 -0.000000
vn -0.999315 0.036996 -0.000000
vn -0.998766 0.049653 0.000000
vn 0.000000 0.049653 -0.998766
vn 0.000000 0.036996 -0.999315
vn 0.000000 0.049653 -0.998766
vn 0.701545 0.025972 0.712152
vn 0.998766 0.049653 -0.000000
vn 0.000000 0.000000 1.000000
vn 0.707107 0.000000 0.707107
vn 1.000000 0.000000 0.000000
vn 0.000000 0.000000 1.000000
vn -1.000000 0.000000 0.000000
vn -1.000000 0.000000 0.000000
vn -1.000000 0.000000 0.000000
vn 0.000000 0.000000 -1.000000
vn 0.000000 0.000000 -1.000000
vn 0.000000 0.000000 -1.000000
vn 0.707107 0.000000 0.707107
vn 1.000000 0.000000 0.000000
vn 0.000000 0.000000 1.000000
vn 0.000000 0.000000 1.000000
vn 0.000000 0.000000 1.000000
vn 0.000000 0.000000 1.000000
vn 0.000000 0.000000 1.000000
vn 1.000000 0.000000 0.000000
vn 1.000000 0.000000 0.000000
vn 1.000000 0.000000 0.000000
vn 1.000000 0.000000 0.000000
vn -1.000000 0.000000 0.000000
vn -1.000000 0.000000 0.000000
vn -1.000000 0.000000 0.000000
vn -1.000000 0.000000 0.000000
vn 0.000000 0.000000 1.000000
vn 0.000000 0.000000 1.000000
vn 0.000000 0.000000 1.000000
vn 0.000000 0.000000 1.000000
vn 1.000000 0.000000 0.000000
vn 1.000000 0.000000 0.000000
vn 1.000000 0.000000 0.000000
vn 1.000000 0.000000 0.000000
vn 0.000000 0.000000 -1.000000
vn 0.000000 0.000000 -1.000000
vn 0.000000 0.000000 -1.000000
vn 0.000000 0.000000 -1.000000
vn 0.000000 0.000000 -1.000000
vn 0.000000 0.000000 -1.000000
vn 0.000000 0.000000 -1.000000
vn 0.000000 0.000000 -1.000000
vn -1.000000 0.000000 0.000000
vn -1.000000 0.000000 0.000000
vn -1.000000 0.000000 0.000000
vn -1.000000 0.000000 0.000000
s 1
g pCube5
usemtl initialShadingGroup
f 1/1/1 12/16/2 42/48/3 43/49/4
s 2
f 57/67/5 58/68/6 59/69/7 60/70/8
s 3
f 45/52/9 46/53/10 11/15/11 7/7/12
s 4
f 2/2/13 16/22/14 48/56/15 41/47/16
s 5
f 15/21/17 1/1/18 43/49/19 44/50/20
s 3
f 11/15/11 46/53/10 47/54/21 8/8/22
s 1
f 42/48/3 12/16/2 2/2/23 41/47/24
s 2
f 59/69/7 61/71/25 62/72/26 63/73/27
f 60/70/8 59/69/7 63/73/27 64/74/28
s 5
f 7/11/29 15/21/17 44/50/20 45/51/30
s 4
f 48/56/15 16/22/14 8/9/31 47/55/32
s off
f 25/31/33 26/32/34 27/33/35 28/34/36
f 26/32/37 29/35/38 30/36/39 27/33/40
s 6
f 31/37/41 25/31/42 28/34/43 32/38/44
s off
f 29/35/45 33/39/46 34/40/47 30/36/48
f 33/39/49 35/41/50 36/42/51 34/40/52
s 7
f 35/41/53 37/43/54 38/44/55 36/42/56
f 37/43/54 39/45/57 40/46/58 38/44/55
s 6
f 39/45/59 31/37/41 32/38/44 40/46/60
s 8
f 3/3/61 9/13/62 26/32/63 25/31/64
s 9
f 18/24/65 17/23/66 28/34/67 27/33/68
s 8
f 9/13/62 4/4/69 29/35/70 26/32/63
s 9
f 19/25/71 18/24/65 27/33/68 30/36/72
s 8
f 14/20/73 3/3/61 25/31/64 31/37/74
s 9
f 17/23/66 20/26/75 32/38/76 28/34/67
s 8
f 4/4/69 13/17/77 33/39/78 29/35/70
s 9
f 21/27/79 19/25/71 30/36/72 34/40/80
s 8
f 13/17/77 6/6/81 35/41/82 33/39/78
s 9
f 22/28/83 21/27/79 34/40/80 36/42/84
s 8
f 6/6/81 10/14/85 37/43/86 35/41/82
s 9
f 23/29/87 22/28/83 36/42/84 38/44/88
s 8
f 10/14/85 5/5/89 39/45/90 37/43/86
s 9
f 24/30/91 23/29/87 38/44/88 40/46/92
s 8
f 5/5/89 14/20/73 31/37/74 39/45/90
s 9
f 20/26/75 24/30/91 40/46/92 32/38/76
s 1
f 50/58/93 42/48/3 41/47/24 49/57/94
f 43/49/4 42/48/3 50/58/93 51/59/95
s 5
f 44/50/20 43/49/19 51/59/96 52/60/97
f 45/51/30 44/50/20 52/60/97 53/61/98
s 3
f 53/62/99 54/63/100 46/53/10 45/52/9
f 47/54/21 46/53/10 54/63/100 55/64/101
s 4
f 56/66/102 48/56/15 47/55/32 55/65/103
f 41/47/16 48/56/15 56/66/102 49/57/104
s 1
f 9/13/105 50/58/93 49/57/94 4/4/106
f 51/59/95 50/58/93 9/13/105 3/3/107
s 5
f 52/60/97 51/59/96 3/3/108 14/19/109
f 53/61/98 52/60/97 14/19/109 5/12/110
s 3
f 5/5/111 10/14/112 54/63/100 53/62/99
f 55/64/101 54/63/100 10/14/112 6/6/113
s 4
f 13/18/114 56/66/102 55/65/103 6/10/115
f 49/57/104 56/66/102 13/18/114 4/4/116
s off
f 17/23/117 18/24/118 58/68/119 57/67/120
f 18/24/121 19/25/122 59/69/123 58/68/124
f 20/26/125 17/23/126 57/67/127 60/70/128
f 19/25/129 21/27/130 61/71/131 59/69/132
f 21/27/133 22/28/134 62/72/135 61/71/136
f 22/28/137 23/29/138 63/73/139 62/72/140
f 23/29/141 24/30/142 64/74/143 63/73/144
f 24/30/145 20/26/146 60/70/147 64/74/148
