# This file uses centimeters as units for non-parametric coordinates.

mtllib MC_Tall_Building_BO.mtl
g default
v 65.397766 0.000075 -26.254454
v 184.602234 0.000075 -26.254454
v 65.397766 0.000075 -223.745546
v 184.602234 0.000075 -223.745546
v 65.397766 96.403265 -175.265986
v 43.150691 -0.000014 -198.784321
v 205.895884 -0.000014 -198.784321
v 184.602234 96.403265 -175.265986
v 65.397766 96.403265 -75.905579
v 43.150691 -0.000071 -51.115975
v 205.578071 -0.000071 -51.115975
v 184.602234 96.403265 -75.905579
v 184.602234 525.258447 -75.905579
v 65.397766 525.258447 -75.905579
v 184.602234 525.258447 -175.265986
v 65.397766 525.258447 -175.265986
v 65.703642 174.174536 -175.265986
v 184.602206 174.174749 -174.991512
v 184.296514 174.174664 -75.905579
v 65.397723 174.174692 -76.173555
v 21.887160 0.000075 -175.265986
v 21.887160 0.000075 -75.905579
v 228.112861 0.000075 -75.905579
v 228.112861 0.000075 -175.265986
v 205.578071 96.403265 -51.115975
v 184.602234 96.488761 -26.254454
v 65.397766 96.488761 -26.254454
v 43.150691 96.403265 -51.115975
v 21.887160 96.488761 -75.905579
v 21.887160 96.488761 -175.265986
v 43.150691 96.403265 -198.784321
v 65.397766 96.488761 -223.745546
v 184.602234 96.488761 -223.745546
v 205.895884 96.403265 -198.784321
v 228.112861 96.488761 -175.265986
v 228.112861 96.488761 -75.905579
v 205.895884 51.171094 -198.784321
v 228.112861 51.171094 -175.265986
v 228.112861 51.171094 -75.905579
v 205.578071 51.171094 -51.115975
v 184.602234 51.171094 -26.254454
v 65.397766 51.171094 -26.254454
v 43.150691 51.171094 -51.115975
v 21.887160 51.171093 -75.905579
v 21.887160 51.171094 -175.265986
v 43.150691 51.171094 -198.784321
v 65.397766 51.171094 -223.745546
v 184.602234 51.171094 -223.745546
v 184.602234 96.403265 -198.749301
v 184.602234 51.171094 -198.777823
v 184.602234 0.000050 -198.777823
v 65.397766 0.000050 -198.777823
v 65.397766 51.171094 -198.777823
v 65.397766 96.403265 -198.749278
v 184.602234 96.403265 -51.225520
v 184.602234 51.171094 -51.190588
v 184.602234 0.000025 -51.190588
v 65.397766 0.000025 -51.190588
v 65.397766 51.171094 -51.190588
v 65.397766 96.403265 -51.225543
v 205.579201 96.403265 -175.265986
v 205.604588 51.171094 -175.265986
v 205.604588 0.000075 -175.265986
v 205.604588 0.000075 -75.905579
v 205.604588 51.171094 -75.905579
v 205.579201 96.403265 -75.905579
v 43.124992 96.403265 -175.265986
v 43.130342 51.171094 -175.265986
v 43.130342 0.000075 -175.265986
v 43.130342 0.000075 -75.905579
v 43.130342 51.171094 -75.905579
v 43.124992 96.403265 -75.905579
v 65.397723 174.259527 -51.528462
v 184.602206 174.259570 -51.528409
v 205.248052 174.256970 -75.905579
v 205.248052 174.256970 -175.265986
v 43.425518 174.262128 -175.265986
v 43.425518 174.262128 -75.905579
v 184.602206 174.257396 -198.446341
v 65.397737 174.257367 -198.446294
v 172.553040 525.258447 -85.948926
v 77.446960 525.258447 -85.948926
v 172.553040 525.258447 -165.222604
v 77.446960 525.258447 -165.222604
v 184.602234 537.808000 -75.905579
v 65.397766 537.808000 -75.905579
v 172.553040 537.808000 -85.948926
v 77.446960 537.808000 -85.948926
v 184.602234 537.808000 -175.265986
v 172.553040 537.808000 -165.222604
v 65.397766 537.808000 -175.265986
v 77.446960 537.808000 -165.222604
vt 0.375000 0.000000
vt 0.625000 0.000000
vt 0.375000 0.750000
vt 0.625000 0.750000
vt 0.875000 0.000000
vt 0.125000 0.000000
vt 0.186369 0.250000
vt 0.375000 0.438631
vt 0.186369 0.000000
vt 0.813631 0.000000
vt 0.625000 0.438631
vt 0.813631 0.250000
vt 0.312148 0.250000
vt 0.375000 0.312852
vt 0.312148 0.000000
vt 0.687852 0.000000
vt 0.625000 0.312852
vt 0.687852 0.250000
vt 0.375000 0.312852
vt 0.625000 0.312852
vt 0.625000 0.438631
vt 0.375000 0.438631
vt 0.375648 0.438620
vt 0.624995 0.438274
vt 0.624354 0.312862
vt 0.375006 0.313202
vt 0.186369 0.000000
vt 0.312148 0.000000
vt 0.687852 0.000000
vt 0.813631 0.000000
vt 0.687852 0.086383
vt 0.625000 0.086383
vt 0.375000 0.086383
vt 0.312148 0.086383
vt 0.312148 0.086383
vt 0.186369 0.086383
vt 0.186369 0.086383
vt 0.125000 0.086383
vt 0.375000 0.663617
vt 0.625000 0.663617
vt 0.875000 0.086383
vt 0.813631 0.086383
vt 0.813631 0.086383
vt 0.687852 0.086383
vt 0.813631 0.045812
vt 0.813631 0.045812
vt 0.687852 0.045812
vt 0.687852 0.045812
vt 0.625000 0.045812
vt 0.375000 0.045812
vt 0.312148 0.045812
vt 0.312148 0.045812
vt 0.186369 0.045812
vt 0.186369 0.045812
vt 0.125000 0.045812
vt 0.375000 0.704188
vt 0.625000 0.704188
vt 0.875000 0.045812
vt 0.843358 0.128612
vt 0.843394 0.045812
vt 0.843394 0.000000
vt 0.156606 0.000000
vt 0.156606 0.045812
vt 0.156642 0.128612
vt 0.656610 0.127584
vt 0.656566 0.045812
vt 0.656566 0.000000
vt 0.343434 0.000000
vt 0.343434 0.045812
vt 0.343390 0.127584
vt 0.813631 0.128798
vt 0.813631 0.045812
vt 0.813631 0.000000
vt 0.687852 0.000000
vt 0.687852 0.045812
vt 0.687852 0.128798
vt 0.186369 0.126304
vt 0.186369 0.045812
vt 0.186369 0.000000
vt 0.312148 0.000000
vt 0.312148 0.045812
vt 0.312148 0.126304
vt 0.625000 0.547481
vt 0.375000 0.547481
vt 0.375000 0.200441
vt 0.625000 0.200440
vt 0.624350 0.311341
vt 0.375006 0.312658
vt 0.375000 0.200441
vt 0.625000 0.200440
vt 0.813271 0.248789
vt 0.687863 0.249928
vt 0.687852 0.171214
vt 0.813631 0.171214
vt 0.186382 0.249917
vt 0.186369 0.166225
vt 0.312148 0.166225
vt 0.311796 0.248770
vt 0.625000 0.547481
vt 0.375000 0.547481
vt 0.375647 0.440108
vt 0.624991 0.438945
vt 0.375000 0.312852
vt 0.625000 0.312852
vt 0.625000 0.438631
vt 0.375000 0.438631
vt 0.375000 0.312852
vt 0.625000 0.312852
vt 0.625000 0.312852
vt 0.375000 0.312852
vt 0.625000 0.438631
vt 0.625000 0.438631
vt 0.375000 0.438631
vt 0.375000 0.438631
vn 0.000000 0.000000 1.000000
vn 0.000000 0.000000 1.000000
vn 0.000000 0.000000 1.000000
vn 0.000000 0.000000 1.000000
vn 0.000004 0.999994 -0.003462
vn 0.000004 0.999994 -0.003462
vn 0.000004 0.999994 -0.003462
vn 0.000004 0.999994 -0.003462
vn 0.000000 0.000000 -1.000000
vn 0.000000 0.000000 -1.000000
vn 0.000000 0.000000 -1.000000
vn 0.000000 0.000000 -1.000000
vn -0.003557 0.000000 0.999994
vn -0.003557 0.000000 0.999994
vn -0.003557 0.000000 0.999994
vn -0.003557 0.000000 0.999994
vn 0.003354 0.000000 0.999994
vn 0.003354 0.000000 0.999994
vn 0.003354 0.000000 0.999994
vn 0.003354 0.000000 0.999994
vn -1.000000 0.000000 0.000000
vn -1.000000 0.000000 0.000000
vn -1.000000 0.000000 0.000000
vn -1.000000 0.000000 0.000000
vn 1.000000 0.000000 0.000000
vn 1.000000 0.000000 0.000000
vn 1.000000 0.000000 0.000000
vn 1.000000 0.000000 0.000000
vn -1.000000 0.000000 0.000000
vn -1.000000 0.000000 0.000000
vn -1.000000 0.000000 0.000000
vn -1.000000 0.000000 0.000000
vn 1.000000 0.000000 0.000000
vn 1.000000 0.000000 0.000000
vn 1.000000 0.000000 0.000000
vn 1.000000 0.000000 0.000000
vn 0.001153 -0.000390 -0.999999
vn 0.001153 -0.000390 -0.999999
vn 0.001153 -0.000390 -0.999999
vn 0.001153 -0.000390 -0.999999
vn 0.999999 -0.000435 0.001540
vn 0.999999 -0.000435 0.001540
vn 0.999999 -0.000435 0.001540
vn 0.999999 -0.000435 0.001540
vn -0.001125 -0.000381 0.999999
vn -0.001125 -0.000381 0.999999
vn -0.001125 -0.000381 0.999999
vn -0.001125 -0.000381 0.999999
vn -0.999999 -0.000435 -0.001542
vn -0.999999 -0.000435 -0.001542
vn -0.999999 -0.000435 -0.001542
vn -0.999999 -0.000435 -0.001542
vn 0.000000 0.000000 1.000000
vn 0.000000 0.000000 1.000000
vn 0.000000 0.000000 1.000000
vn 0.000000 0.000000 1.000000
vn 0.000000 0.000000 -1.000000
vn 0.000000 0.000000 -1.000000
vn 0.000000 0.000000 -1.000000
vn 0.000000 0.000000 -1.000000
vn 0.999999 0.000000 0.001070
vn 0.999999 0.000000 0.001070
vn 0.999999 0.000000 0.001070
vn 0.999999 0.000000 0.001070
vn 0.999923 0.000000 0.012385
vn 0.999923 0.000000 0.012385
vn 0.999923 0.000000 0.012385
vn 0.999923 0.000000 0.012385
vn -0.003955 0.999992 -0.000006
vn -0.003955 0.999992 -0.000006
vn -0.003955 0.999992 -0.000006
vn -0.003955 0.999992 -0.000006
vn 0.000000 1.000000 0.000000
vn 0.000000 1.000000 0.000000
vn 0.000000 1.000000 0.000000
vn 0.000000 1.000000 0.000000
vn 0.000000 1.000000 -0.000000
vn 0.000000 1.000000 -0.000000
vn 0.000000 1.000000 -0.000000
vn 0.000000 1.000000 -0.000000
vn 0.003955 0.999992 0.000005
vn 0.003955 0.999992 0.000005
vn 0.003955 0.999992 0.000005
vn 0.003955 0.999992 0.000005
vn 0.000000 1.000000 0.000000
vn 0.000000 1.000000 0.000000
vn 0.000000 1.000000 0.000000
vn 0.000000 1.000000 0.000000
vn -0.000005 0.999994 0.003548
vn -0.000005 0.999994 0.003548
vn -0.000005 0.999994 0.003548
vn -0.000005 0.999994 0.003548
vn 0.000000 1.000000 -0.000000
vn 0.000000 1.000000 -0.000000
vn 0.000000 1.000000 -0.000000
vn 0.000000 1.000000 -0.000000
vn 0.999916 0.000281 0.012925
vn 0.999916 0.000281 0.012925
vn 0.999916 0.000281 0.012925
vn 0.999916 0.000281 0.012925
vn 1.000000 0.000000 0.000000
vn 1.000000 0.000000 0.000000
vn 1.000000 0.000000 0.000000
vn 1.000000 0.000000 0.000000
vn 1.000000 0.000280 0.000558
vn 1.000000 0.000280 0.000558
vn 1.000000 0.000280 0.000558
vn 1.000000 0.000280 0.000558
vn -0.004389 0.000386 0.999990
vn -0.004389 0.000386 0.999990
vn -0.004389 0.000386 0.999990
vn -0.004389 0.000386 0.999990
vn 0.000000 0.000000 1.000000
vn 0.000000 0.000000 1.000000
vn 0.000000 0.000000 1.000000
vn 0.000000 0.000000 1.000000
vn 0.004139 0.000386 0.999991
vn 0.004139 0.000386 0.999991
vn 0.004139 0.000386 0.999991
vn 0.004139 0.000386 0.999991
vn 0.000000 0.000000 1.000000
vn 0.000000 0.000000 1.000000
vn -1.000000 0.000000 0.000000
vn -1.000000 0.000000 0.000000
vn -1.000000 0.000000 0.000000
vn -1.000000 0.000000 0.000000
vn -0.000000 0.000000 -1.000000
vn -0.000000 0.000000 -1.000000
vn -0.000000 0.000000 -1.000000
vn -0.000000 0.000000 -1.000000
vn -1.000000 0.000000 0.000000
vn -1.000000 0.000000 0.000000
vn -1.000000 0.000000 0.000000
vn -1.000000 0.000000 0.000000
vn 0.000000 0.000000 -1.000000
vn 0.000000 0.000000 -1.000000
vn 0.000000 0.000000 -1.000000
vn 0.000000 0.000000 -1.000000
vn 1.000000 0.000000 0.000000
vn 1.000000 0.000000 0.000000
vn -0.000975 0.000315 -0.999999
vn -0.000975 0.000315 -0.999999
vn -0.000975 0.000315 -0.999999
vn -0.000975 0.000315 -0.999999
vn -0.000305 0.000000 -1.000000
vn -0.000305 0.000000 -1.000000
vn -0.000305 0.000000 -1.000000
vn -0.000305 0.000000 -1.000000
vn 0.000292 0.000000 -1.000000
vn 0.000292 0.000000 -1.000000
vn 0.000292 0.000000 -1.000000
vn 0.000292 0.000000 -1.000000
vn 0.000934 0.000316 -0.999999
vn 0.000934 0.000316 -0.999999
vn 0.000934 0.000316 -0.999999
vn 0.000934 0.000316 -0.999999
vn 1.000000 0.000000 0.000000
vn 1.000000 0.000000 0.000000
vn 1.000000 0.000000 0.000000
vn 1.000000 0.000000 0.000000
vn 1.000000 0.000000 0.000000
vn 1.000000 0.000000 0.000000
vn 1.000000 0.000000 0.000000
vn 1.000000 0.000000 0.000000
vn -1.000000 0.000000 0.000000
vn -1.000000 0.000000 0.000000
vn -1.000000 0.000000 0.000000
vn -1.000000 0.000000 0.000000
vn -1.000000 0.000000 0.000000
vn -1.000000 0.000000 0.000000
vn 0.000000 0.000000 -1.000000
vn 0.000000 0.000000 -1.000000
vn 0.000000 0.000000 -1.000000
vn 0.000000 0.000000 -1.000000
vn 0.000000 0.000000 -1.000000
vn 0.000000 0.000000 -1.000000
vn 0.000000 0.000000 1.000000
vn 0.000000 0.000000 1.000000
vn 0.000000 0.000000 1.000000
vn 0.000000 0.000000 1.000000
vn 0.000000 0.000000 1.000000
vn 0.000000 0.000000 1.000000
vn -1.000000 -0.000059 -0.000979
vn -1.000000 -0.000059 -0.000979
vn -1.000000 -0.000059 -0.000979
vn -1.000000 -0.000059 -0.000979
vn -1.000000 0.000000 -0.000865
vn -1.000000 0.000000 -0.000865
vn -1.000000 0.000000 -0.000865
vn -1.000000 0.000000 -0.000865
vn -1.000000 0.000000 0.000821
vn -1.000000 0.000000 0.000821
vn -1.000000 0.000000 0.000821
vn -1.000000 0.000000 0.000821
vn -1.000000 -0.000059 0.000929
vn -1.000000 -0.000059 0.000929
vn -1.000000 -0.000059 0.000929
vn -1.000000 -0.000059 0.000929
vn -0.003794 0.999993 0.000000
vn -0.003794 0.999993 0.000000
vn -0.003794 0.999993 0.000000
vn -0.003794 0.999993 0.000000
vn 0.000000 0.999994 0.003420
vn 0.000000 0.999994 0.003420
vn 0.000000 0.999994 0.003420
vn 0.000000 0.999994 0.003420
vn 0.004026 0.999992 0.000000
vn 0.004026 0.999992 0.000000
vn 0.004026 0.999992 0.000000
vn 0.004026 0.999992 0.000000
vn 0.000000 0.999994 -0.003424
vn 0.000000 0.999994 -0.003424
vn 0.000000 0.999994 -0.003424
vn 0.000000 0.999994 -0.003424
vn -1.000000 -0.000001 0.000000
vn -1.000000 -0.000001 0.000000
vn -1.000000 -0.000001 0.000000
vn -1.000000 -0.000001 0.000000
vn -0.000000 0.003891 0.999992
vn -0.000000 0.003891 0.999992
vn -0.000000 0.003891 0.999992
vn -0.000000 0.003891 0.999992
vn 0.999979 0.001952 -0.006235
vn 0.999979 0.001952 -0.006235
vn 0.999979 0.001952 -0.006235
vn 0.999979 0.001952 -0.006235
vn 0.000000 0.000000 1.000000
vn 0.000000 0.000000 1.000000
vn 0.000000 0.000000 1.000000
vn 0.000000 0.000000 1.000000
vn 0.999991 0.004253 0.000000
vn 0.999991 0.004253 0.000000
vn 0.999991 0.004253 0.000000
vn 0.999991 0.004253 0.000000
vn -0.006598 0.001750 -0.999977
vn -0.006598 0.001750 -0.999977
vn -0.006598 0.001750 -0.999977
vn -0.006598 0.001750 -0.999977
vn 0.000000 0.000000 -1.000000
vn 0.000000 0.000000 -1.000000
vn 0.000000 0.000000 -1.000000
vn 0.000000 0.000000 -1.000000
vn -0.999993 0.003860 0.000000
vn -0.999993 0.003860 0.000000
vn -0.999993 0.003860 0.000000
vn -0.999993 0.003860 0.000000
vn 0.006060 0.001710 0.999980
vn 0.006060 0.001710 0.999980
vn 0.006060 0.001710 0.999980
vn 0.006060 0.001710 0.999980
vn -0.000000 0.003892 -0.999992
vn -0.000000 0.003892 -0.999992
vn -0.000000 0.003892 -0.999992
vn -0.000000 0.003892 -0.999992
vn -0.999977 0.001952 0.006559
vn -0.999977 0.001952 0.006559
vn -0.999977 0.001952 0.006559
vn -0.999977 0.001952 0.006559
vn 1.000000 0.000000 0.000000
vn 1.000000 0.000000 0.000000
vn 1.000000 0.000000 0.000000
vn 1.000000 0.000000 0.000000
vn 0.000000 1.000000 0.000000
vn 0.000000 1.000000 0.000000
vn 0.000000 1.000000 0.000000
vn 0.000000 1.000000 0.000000
vn 0.000000 1.000000 0.000000
vn 0.000000 1.000000 0.000000
vn 0.000000 1.000000 0.000000
vn 0.000000 1.000000 0.000000
vn 0.000000 1.000000 0.000000
vn 0.000000 1.000000 0.000000
vn 0.000000 1.000000 0.000000
vn 0.000000 1.000000 0.000000
vn 0.000000 1.000000 -0.000000
vn 0.000000 1.000000 -0.000000
vn 0.000000 1.000000 -0.000000
vn 0.000000 1.000000 -0.000000
vn 0.000000 1.000000 0.000000
vn 0.000000 1.000000 0.000000
vn 0.000000 1.000000 0.000000
vn 0.000000 1.000000 0.000000
vn 0.000000 0.000000 1.000000
vn 0.000000 0.000000 1.000000
vn 0.000000 0.000000 1.000000
vn 0.000000 0.000000 1.000000
vn 0.000000 0.000000 -1.000000
vn 0.000000 0.000000 -1.000000
vn 0.000000 0.000000 -1.000000
vn 0.000000 0.000000 -1.000000
vn 1.000000 0.000000 0.000000
vn 1.000000 0.000000 0.000000
vn 1.000000 0.000000 0.000000
vn 1.000000 0.000000 0.000000
vn -1.000000 0.000000 0.000000
vn -1.000000 0.000000 0.000000
vn -1.000000 0.000000 0.000000
vn -1.000000 0.000000 0.000000
vn 0.000000 0.000000 -1.000000
vn 0.000000 0.000000 -1.000000
vn 0.000000 0.000000 -1.000000
vn 0.000000 0.000000 -1.000000
vn 0.000000 0.000000 1.000000
vn 0.000000 0.000000 1.000000
vn 0.000000 0.000000 1.000000
vn 0.000000 0.000000 1.000000
vn -1.000000 0.000000 0.000000
vn -1.000000 0.000000 0.000000
vn -1.000000 0.000000 0.000000
vn -1.000000 0.000000 0.000000
vn 1.000000 0.000000 0.000000
vn 1.000000 0.000000 0.000000
vn 1.000000 0.000000 0.000000
vn 1.000000 0.000000 0.000000
s off
g pCube6
usemtl initialShadingGroup
f 1/1/1 2/2/2 41/49/3 42/50/4
f 19/87/5 20/88/6 73/89/7 74/90/8
f 47/56/9 48/57/10 4/4/11 3/3/12
f 57/67/13 11/16/14 40/48/15 56/66/16
f 10/15/17 58/68/18 59/69/19 43/51/20
f 3/6/21 52/62/22 53/63/23 47/55/24
s 1
f 48/58/25 50/60/26 51/61/27 4/5/28
s off
f 21/27/29 22/28/30 44/52/31 45/53/32
f 39/47/33 23/29/34 24/30/35 38/46/36
f 18/24/37 17/23/38 16/22/39 15/21/40
f 19/25/41 18/24/42 15/21/43 13/20/44
f 20/26/45 19/25/46 13/20/47 14/19/48
f 17/23/49 20/26/50 14/19/51 16/22/52
s 2
f 70/80/53 71/81/54 44/52/55 22/28/56
s off
f 68/78/57 69/79/58 21/27/59 45/53/60
f 65/75/61 40/48/62 11/16/63 64/74/64
f 7/10/65 37/45/66 62/72/67 63/73/68
f 18/91/69 19/92/70 75/93/71 76/94/72
f 12/18/73 55/65/74 25/31/75 66/76/76
f 28/34/77 60/70/78 9/13/79 72/82/80
f 17/95/81 77/96/82 78/97/83 20/98/84
f 31/37/85 67/77/86 5/7/87 54/64/88
f 79/99/89 80/100/90 17/101/91 18/102/92
f 8/12/93 61/71/94 34/42/95 49/59/96
f 37/45/97 34/42/98 61/71/99 62/72/100
f 36/44/101 39/47/102 38/46/103 35/43/104
f 66/76/105 25/31/106 40/48/107 65/75/108
f 56/66/109 40/48/110 25/31/111 55/65/112
f 42/50/113 41/49/114 26/32/115 27/33/116
f 43/51/117 59/69/118 60/70/119 28/34/120
s 2
f 44/52/55 71/81/54 72/82/121 29/35/122
s off
f 45/53/123 44/52/124 29/35/125 30/36/126
f 67/77/127 68/78/128 45/53/129 30/36/130
f 47/55/131 53/63/132 54/64/133 32/38/134
f 32/39/135 33/40/136 48/57/137 47/56/138
s 1
f 49/59/139 50/60/26 48/58/25 33/41/140
s off
f 34/42/141 37/45/142 50/60/143 49/59/144
f 51/61/145 50/60/146 37/45/147 7/10/148
f 53/63/149 52/62/150 6/9/151 46/54/152
f 54/64/153 53/63/154 46/54/155 31/37/156
f 41/49/157 56/66/158 55/65/159 26/32/160
f 2/2/161 57/67/162 56/66/163 41/49/164
s 3
f 59/69/165 58/68/166 1/1/167 42/50/168
f 60/70/169 59/69/165 42/50/168 27/33/170
s 4
f 62/72/171 61/71/172 35/43/173 38/46/174
f 63/73/175 62/72/171 38/46/174 24/30/176
s 5
f 39/47/177 65/75/178 64/74/179 23/29/180
f 36/44/181 66/76/182 65/75/178 39/47/177
s off
f 31/37/183 46/54/184 68/78/185 67/77/186
f 46/54/187 6/9/188 69/79/189 68/78/190
f 10/15/191 43/51/192 71/81/193 70/80/194
f 72/82/195 71/81/196 43/51/197 28/34/198
f 61/71/199 66/76/200 36/44/201 35/43/202
f 33/40/203 32/39/204 54/84/205 49/83/206
f 72/82/207 67/77/208 30/36/209 29/35/210
f 55/86/211 60/85/212 27/33/213 26/32/214
f 9/14/215 60/85/216 73/89/217 20/88/218
f 60/85/219 55/86/220 74/90/221 73/89/222
f 55/86/223 12/17/224 19/87/225 74/90/226
f 12/18/227 66/76/228 75/93/229 19/92/230
f 66/76/231 61/71/232 76/94/233 75/93/234
f 61/71/235 8/12/236 18/91/237 76/94/238
f 5/7/239 67/77/240 77/96/241 17/95/242
f 67/77/243 72/82/244 78/97/245 77/96/246
f 72/82/247 9/13/248 20/98/249 78/97/250
f 49/83/251 54/84/252 80/100/253 79/99/254
f 54/84/255 5/8/256 17/101/257 80/100/258
f 8/11/259 49/83/260 79/99/261 18/102/262
f 82/103/263 81/104/264 83/105/265 84/106/266
f 86/107/267 85/108/268 87/109/269 88/110/270
f 85/108/271 89/111/272 90/112/273 87/109/274
f 89/111/275 91/113/276 92/114/277 90/112/278
f 91/113/279 86/107/280 88/110/281 92/114/282
f 14/19/283 13/20/284 85/108/285 86/107/286
f 81/104/287 82/103/288 88/110/289 87/109/290
f 13/20/291 15/21/292 89/111/293 85/108/294
f 83/105/295 81/104/296 87/109/297 90/112/298
f 15/21/299 16/22/300 91/113/301 89/111/302
f 84/106/303 83/105/304 90/112/305 92/114/306
f 16/22/307 14/19/308 86/107/309 91/113/310
f 82/103/311 84/106/312 92/114/313 88/110/314
