# This file uses centimeters as units for non-parametric coordinates.

mtllib RL_Tall_Building_BO.mtl
g default
v 21.028034 0.000000 -21.028034
v 228.971966 0.000000 -21.028034
v 21.028034 82.095336 -21.028034
v 228.971966 82.095336 -21.028034
v 21.028034 82.095336 -228.971966
v 228.971966 82.095336 -228.971966
v 21.028034 0.000000 -228.971966
v 228.971966 0.000000 -228.971966
v 21.028034 82.095336 -175.000000
v 21.028034 0.000000 -175.000000
v 228.971966 0.000000 -175.000000
v 228.971966 82.095356 -175.000000
v 21.028034 82.095336 -75.000000
v 21.028034 0.000000 -75.000000
v 228.971966 0.000000 -75.000000
v 228.971966 82.095356 -75.000000
v 75.000000 82.095336 -21.028034
v 75.000000 82.095336 -75.000000
v 75.000000 82.095336 -228.971966
v 75.000000 0.000000 -228.971966
v 75.000000 0.000000 -21.028034
v 175.000000 82.095336 -21.028034
v 175.000000 82.095356 -75.000000
v 175.000000 82.095356 -228.971966
v 175.000000 0.000000 -228.971966
v 175.000000 0.000000 -21.028034
v 75.000000 283.612780 -175.000000
v 21.028034 283.612780 -175.000000
v 75.000000 283.612780 -228.971966
v 21.028034 283.612780 -228.971966
v 75.000000 283.612780 -75.000000
v 21.028034 283.612780 -75.000000
v 175.000000 283.612780 -75.000000
v 175.000000 283.612780 -175.000000
v 175.000000 283.612780 -228.971966
v 228.971966 283.612780 -175.000000
v 228.971966 283.612780 -228.971966
v 75.000000 492.677358 -75.000000
v 21.028034 492.677358 -75.000000
v 75.000000 492.677358 -175.000000
v 21.028034 492.677358 -175.000000
v 175.000000 492.677358 -75.000000
v 175.000000 492.677358 -175.000000
v 75.000000 515.865711 -75.000000
v 21.028034 515.865711 -75.000000
v 75.000000 515.865711 -175.000000
v 21.028034 515.865711 -175.000000
v 175.000000 515.865711 -75.000000
v 175.000000 515.865711 -175.000000
v 80.252671 515.865711 -86.411869
v 38.599138 515.865711 -86.411869
v 80.252671 515.865711 -163.588094
v 38.599138 515.865711 -163.588094
v 157.428871 515.865711 -86.411869
v 157.428871 515.865711 -163.588094
v 80.252671 488.854114 -86.411869
v 38.599138 488.854114 -86.411869
v 80.252671 488.854114 -163.588094
v 38.599138 488.854114 -163.588094
v 157.428871 488.854114 -86.411869
v 157.428871 488.854114 -163.588094
v 175.000000 82.095336 -175.000000
vt 0.375000 0.000000
vt 0.625000 0.000000
vt 0.375000 0.250000
vt 0.625000 0.250000
vt 0.375000 0.500000
vt 0.625000 0.500000
vt 0.375000 0.750000
vt 0.625000 0.750000
vt 0.875000 0.000000
vt 0.875000 0.250000
vt 0.125000 0.000000
vt 0.125000 0.250000
vt 0.194607 0.250000
vt 0.375000 0.430393
vt 0.194607 0.000000
vt 0.805393 0.000000
vt 0.625000 0.430393
vt 0.805393 0.250000
vt 0.295105 0.250000
vt 0.375000 0.329895
vt 0.295105 0.000000
vt 0.704895 0.000000
vt 0.625000 0.329895
vt 0.704895 0.250000
vt 0.446007 0.250000
vt 0.446007 0.329895
vt 0.446007 0.430393
vt 0.446007 0.500000
vt 0.446007 0.750000
vt 0.446007 0.000000
vt 0.545304 0.250000
vt 0.545304 0.329895
vt 0.545304 0.500000
vt 0.545304 0.750000
vt 0.545304 0.000000
vt 0.446007 0.500000
vt 0.375000 0.500000
vt 0.375000 0.430393
vt 0.375000 0.329895
vt 0.446007 0.329895
vt 0.545304 0.329895
vt 0.545304 0.430393
vt 0.545304 0.500000
vt 0.625000 0.430393
vt 0.625000 0.500000
vt 0.375000 0.329895
vt 0.446007 0.329895
vt 0.446007 0.430393
vt 0.375000 0.430393
vt 0.545304 0.329895
vt 0.545304 0.430393
vt 0.375000 0.329895
vt 0.446007 0.329895
vt 0.446007 0.430393
vt 0.375000 0.430393
vt 0.545304 0.329895
vt 0.545304 0.430393
vt 0.375000 0.329895
vt 0.446007 0.329895
vt 0.446007 0.430393
vt 0.375000 0.430393
vt 0.545304 0.329895
vt 0.545304 0.430393
vt 0.375000 0.329895
vt 0.446007 0.329895
vt 0.446007 0.430393
vt 0.375000 0.430393
vt 0.545304 0.329895
vt 0.545304 0.430393
vt 0.586308 0.381602
vn 0.000000 0.000000 1.000000
vn 0.000000 0.000000 1.000000
vn 0.000000 0.000000 1.000000
vn 0.000000 0.000000 1.000000
vn 0.000000 1.000000 0.000000
vn 0.000000 1.000000 0.000000
vn 0.000000 1.000000 0.000000
vn 0.000000 1.000000 0.000000
vn 0.000000 0.000000 -1.000000
vn 0.000000 0.000000 -1.000000
vn 0.000000 0.000000 -1.000000
vn 0.000000 0.000000 -1.000000
vn 1.000000 0.000000 0.000000
vn 1.000000 0.000000 0.000000
vn 1.000000 0.000000 0.000000
vn 1.000000 0.000000 0.000000
vn -1.000000 0.000000 0.000000
vn -1.000000 0.000000 0.000000
vn -1.000000 0.000000 0.000000
vn -1.000000 0.000000 0.000000
vn -1.000000 0.000000 0.000000
vn -1.000000 0.000000 0.000000
vn -1.000000 0.000000 0.000000
vn -1.000000 0.000000 0.000000
vn 1.000000 0.000000 0.000000
vn 1.000000 0.000000 0.000000
vn 1.000000 0.000000 0.000000
vn 1.000000 0.000000 0.000000
vn 0.000000 1.000000 0.000000
vn 0.000000 1.000000 0.000000
vn 0.000000 1.000000 0.000000
vn 0.000000 1.000000 0.000000
vn -1.000000 0.000000 0.000000
vn -1.000000 0.000000 0.000000
vn -1.000000 0.000000 0.000000
vn -1.000000 0.000000 0.000000
vn 1.000000 0.000000 0.000000
vn 1.000000 0.000000 0.000000
vn 1.000000 0.000000 0.000000
vn 1.000000 0.000000 0.000000
vn 0.000000 1.000000 0.000000
vn 0.000000 1.000000 0.000000
vn 0.000000 1.000000 0.000000
vn 0.000000 1.000000 0.000000
vn -0.000000 1.000000 0.000000
vn -0.000000 1.000000 0.000000
vn -0.000000 1.000000 0.000000
vn -0.000000 1.000000 0.000000
vn 0.000000 1.000000 0.000000
vn 0.000000 1.000000 0.000000
vn 0.000000 1.000000 0.000000
vn 0.000000 1.000000 0.000000
vn 0.000000 1.000000 0.000000
vn 0.000000 1.000000 0.000000
vn 0.000000 1.000000 0.000000
vn 0.000000 1.000000 0.000000
vn 0.000000 0.000000 -1.000000
vn 0.000000 0.000000 -1.000000
vn 0.000000 0.000000 -1.000000
vn 0.000000 0.000000 -1.000000
vn 0.000000 0.000000 1.000000
vn 0.000000 0.000000 1.000000
vn 0.000000 0.000000 1.000000
vn 0.000000 0.000000 1.000000
vn 0.000000 1.000000 0.000000
vn 0.000000 1.000000 0.000000
vn 0.000000 1.000000 0.000000
vn 0.000000 1.000000 0.000000
vn 0.000000 1.000000 0.000000
vn 0.000000 1.000000 0.000000
vn 0.000000 1.000000 0.000000
vn 0.000000 1.000000 0.000000
vn 0.000000 0.000000 -1.000000
vn 0.000000 0.000000 -1.000000
vn 0.000000 0.000000 1.000000
vn 0.000000 0.000000 1.000000
vn 0.000000 0.000000 1.000000
vn 0.000000 0.000000 1.000000
vn 0.000000 0.000000 -1.000000
vn 0.000000 0.000000 -1.000000
vn 0.000000 0.000000 -1.000000
vn 0.000000 0.000000 -1.000000
vn -1.000000 0.000000 0.000000
vn -1.000000 0.000000 0.000000
vn -1.000000 0.000000 0.000000
vn -1.000000 0.000000 0.000000
vn 0.000000 0.000000 1.000000
vn 0.000000 0.000000 1.000000
vn 0.000000 0.000000 1.000000
vn 0.000000 0.000000 1.000000
vn -1.000000 0.000000 0.000000
vn -1.000000 0.000000 0.000000
vn -1.000000 0.000000 0.000000
vn -1.000000 0.000000 0.000000
vn 0.000000 0.000000 1.000000
vn 0.000000 0.000000 1.000000
vn 0.000000 0.000000 1.000000
vn 0.000000 0.000000 1.000000
vn 0.000000 0.000000 -1.000000
vn 0.000000 0.000000 -1.000000
vn 0.000000 0.000000 -1.000000
vn 0.000000 0.000000 -1.000000
vn 1.000000 0.000000 0.000000
vn 1.000000 0.000000 0.000000
vn 1.000000 0.000000 0.000000
vn 1.000000 0.000000 0.000000
vn 0.000000 0.000000 -1.000000
vn 0.000000 0.000000 -1.000000
vn 0.000000 0.000000 -1.000000
vn 0.000000 0.000000 -1.000000
vn 0.000000 0.000000 1.000000
vn 0.000000 0.000000 1.000000
vn 0.000000 0.000000 -1.000000
vn 0.000000 0.000000 -1.000000
vn 0.000000 0.000000 -1.000000
vn 0.000000 0.000000 -1.000000
vn -1.000000 0.000000 0.000000
vn -1.000000 0.000000 0.000000
vn -1.000000 0.000000 0.000000
vn -1.000000 0.000000 0.000000
vn 0.000000 0.000000 1.000000
vn 0.000000 0.000000 1.000000
vn 1.000000 0.000000 0.000000
vn 1.000000 0.000000 0.000000
vn 1.000000 0.000000 0.000000
vn 1.000000 0.000000 0.000000
vn 0.000000 0.000000 -1.000000
vn 0.000000 0.000000 -1.000000
vn 0.000000 0.000000 1.000000
vn 0.000000 0.000000 1.000000
vn 0.000000 0.000000 1.000000
vn 0.000000 0.000000 1.000000
vn 0.000000 0.000000 -1.000000
vn 0.000000 0.000000 -1.000000
vn 0.000000 0.000000 -1.000000
vn 0.000000 0.000000 -1.000000
vn -1.000000 0.000000 0.000000
vn -1.000000 0.000000 0.000000
vn -1.000000 0.000000 0.000000
vn -1.000000 0.000000 0.000000
vn 0.000000 0.000000 1.000000
vn 0.000000 0.000000 1.000000
vn 1.000000 0.000000 0.000000
vn 1.000000 0.000000 0.000000
vn 1.000000 0.000000 0.000000
vn 1.000000 0.000000 0.000000
vn 0.000000 0.000000 -1.000000
vn 0.000000 0.000000 -1.000000
vn 0.000000 1.000000 0.000000
vn 0.000000 1.000000 0.000000
vn 0.000000 1.000000 0.000000
vn 0.000000 1.000000 0.000000
vn 0.000000 1.000000 0.000000
vn 0.000000 1.000000 0.000000
vn 0.000000 1.000000 0.000000
vn 0.000000 1.000000 0.000000
vn 0.000000 1.000000 0.000000
vn 0.000000 1.000000 0.000000
vn 0.000000 1.000000 0.000000
vn 0.000000 1.000000 0.000000
vn 0.000000 1.000000 0.000000
vn 0.000000 1.000000 0.000000
vn 0.000000 1.000000 0.000000
vn 0.000000 1.000000 0.000000
vn 0.000000 1.000000 0.000000
vn 0.000000 1.000000 0.000000
vn 0.000000 1.000000 0.000001
vn 0.000000 1.000000 0.000001
vn 0.000000 1.000000 0.000001
vn 0.000000 1.000000 0.000001
vn 0.000000 0.000000 -1.000000
vn 0.000000 0.000000 -1.000000
vn 0.000000 0.000000 -1.000000
vn 0.000000 0.000000 -1.000000
vn 0.000000 0.000000 1.000000
vn 0.000000 0.000000 1.000000
vn 0.000000 0.000000 1.000000
vn 0.000000 0.000000 1.000000
vn 1.000000 0.000000 0.000000
vn 1.000000 0.000000 0.000000
vn 1.000000 0.000000 0.000000
vn 1.000000 0.000000 0.000000
vn 0.000000 0.000000 -1.000000
vn 0.000000 0.000000 -1.000000
vn 0.000000 0.000000 -1.000000
vn 0.000000 0.000000 -1.000000
vn -1.000000 0.000000 0.000000
vn -1.000000 0.000000 0.000000
vn -1.000000 0.000000 0.000000
vn -1.000000 0.000000 0.000000
vn 0.000000 0.000000 1.000000
vn 0.000000 0.000000 1.000000
vn 0.000000 0.000000 1.000000
vn 0.000000 0.000000 1.000000
vn 1.000000 0.000000 0.000000
vn 1.000000 0.000000 0.000000
vn 1.000000 0.000000 0.000000
vn 1.000000 0.000000 0.000000
vn -0.000000 1.000000 -0.000000
vn -0.000000 1.000000 -0.000000
vn -0.000000 1.000000 -0.000000
vn -0.000000 1.000000 -0.000000
vn -0.000000 0.000000 1.000000
vn -0.000000 0.000000 1.000000
vn -0.000000 0.000000 1.000000
vn -0.000000 0.000000 1.000000
s off
g pCube11
usemtl initialShadingGroup
f 1/1/1 21/30/2 17/25/3 3/3/4
f 3/3/5 17/25/6 18/26/7 13/20/8
f 5/5/9 19/28/10 20/29/11 7/7/12
f 2/2/13 15/22/14 16/24/15 4/4/16
f 14/21/17 1/1/18 3/3/19 13/19/20
f 7/11/21 10/15/22 9/13/23 5/12/24
f 12/18/25 11/16/26 8/9/27 6/10/28
f 28/38/29 27/27/30 29/36/31 30/37/32
f 10/15/33 14/21/34 13/19/35 9/13/36
f 16/24/37 15/22/38 11/16/39 12/18/40
f 57/64/41 56/65/42 58/66/43 59/67/44
f 17/25/45 22/31/46 23/32/47 18/26/48
f 58/66/49 56/65/50 60/68/51 61/69/52
f 29/36/53 27/27/54 34/42/55 35/43/56
s 1
f 20/29/57 19/28/58 24/33/59 25/34/60
s off
f 17/25/61 21/30/62 26/35/63 22/31/64
f 22/31/65 4/4/66 16/23/67 23/32/68
f 35/43/69 34/42/70 36/44/71 37/45/72
s 1
f 25/34/60 24/33/59 6/6/73 8/8/74
s off
f 22/31/75 26/35/76 2/2/77 4/4/78
f 19/28/79 5/5/80 30/37/81 29/36/82
f 5/5/83 9/14/84 28/38/85 30/37/86
s 2
f 13/20/87 18/26/88 31/40/89 32/39/90
s off
f 9/14/91 13/20/92 32/39/93 28/38/94
f 18/26/95 23/32/96 33/41/97 31/40/98
f 24/33/99 19/28/100 29/36/101 35/43/102
f 12/17/103 6/6/104 37/45/105 36/44/106
f 6/6/107 24/33/108 35/43/109 37/45/110
s 2
f 32/39/90 31/40/89 38/47/111 39/46/112
s 3
f 27/27/113 28/38/114 41/49/115 40/48/116
s off
f 28/38/117 32/39/118 39/46/119 41/49/120
s 2
f 31/40/89 33/41/121 42/50/122 38/47/111
s off
f 33/41/123 34/42/124 43/51/125 42/50/126
s 3
f 34/42/127 27/27/113 40/48/116 43/51/128
s 4
f 39/46/129 38/47/130 44/53/131 45/52/132
s 5
f 40/48/133 41/49/134 47/55/135 46/54/136
s off
f 41/49/137 39/46/138 45/52/139 47/55/140
s 4
f 38/47/130 42/50/141 48/56/142 44/53/131
s off
f 42/50/143 43/51/144 49/57/145 48/56/146
s 5
f 43/51/147 40/48/133 46/54/136 49/57/148
s 6
f 45/52/149 44/53/150 50/59/151 51/58/152
s off
f 46/54/153 47/55/154 53/61/155 52/60/156
s 6
f 47/55/157 45/52/149 51/58/152 53/61/158
s off
f 44/53/159 48/56/160 54/62/161 50/59/162
f 48/56/163 49/57/164 55/63/165 54/62/166
f 49/57/167 46/54/168 52/60/169 55/63/170
f 51/58/171 50/59/172 56/65/173 57/64/174
f 52/60/175 53/61/176 59/67/177 58/66/178
f 53/61/179 51/58/180 57/64/181 59/67/182
f 50/59/183 54/62/184 60/68/185 56/65/186
f 54/62/187 55/63/188 61/69/189 60/68/190
f 55/63/191 52/60/192 58/66/193 61/69/194
f 62/70/195 34/42/196 33/41/197 23/32/198
f 62/70/199 23/32/200 16/24/201 12/17/202
f 12/17/203 36/44/204 34/42/205 62/70/206
