# 3ds Max Wavefront OBJ Exporter v0.97b - (c)2007 guruware
# File Created: 12.10.2016 01:51:32

#
# object SM_Bridge_001
#

v  0.0000 0.0000 0.0000
v  0.0000 250.0000 0.0000
v  250.0000 250.0000 0.0000
v  250.0000 0.0000 0.0000
v  250.0000 0.0000 50.0000
v  0.0000 0.0000 50.0000
v  250.0000 250.0000 50.0000
v  0.0000 250.0000 50.0000
# 8 vertices

vn 0.0000 0.0000 -1.0000
vn 0.0000 -1.0000 0.0000
vn 1.0000 0.0000 0.0000
vn -1.0000 0.0000 0.0000
vn 0.0000 1.0000 0.0000
vn 0.0000 0.0000 1.0000
# 6 vertex normals

vt 1.0000 0.0000 0.0000
vt 1.0000 1.0000 0.0000
vt -0.6000 1.0000 0.0000
vt -0.6000 0.0000 0.0000
vt 1.6000 0.0000 0.0000
vt 1.6000 1.0000 0.0000
vt 0.0000 1.0000 0.0000
vt 0.0000 0.0000 0.0000
# 8 texture coords

g SM_Bridge_001
s 2
f 1/1/1 2/2/1 3/3/1 4/4/1 
s 8
f 4/5/2 5/6/2 6/7/2 1/8/2 
s 16
f 4/8/3 3/1/3 7/2/3 5/7/3 
s 64
f 2/8/4 1/1/4 6/2/4 8/7/4 
s 32
f 8/2/5 7/3/5 3/4/5 2/1/5 
s 4
f 5/5/6 7/6/6 8/7/6 6/8/6 
# 6 polygons

