# 3ds Max Wavefront OBJ Exporter v0.97b - (c)2007 guruware
# File Created: 12.10.2016 10:56:25

#
# object SM_B_Tower
#

v  -0.0000 -0.0000 -0.0000
v  -0.0000 250.0000 -0.0000
v  250.0000 250.0000 -0.0000
v  250.0000 -0.0000 -0.0000
v  25.0000 25.0000 370.0000
v  225.0000 25.0000 370.0000
v  225.0000 225.0000 370.0000
v  25.0000 225.0000 370.0000
v  250.0000 -0.0000 70.0000
v  -0.0000 -0.0000 70.0000
v  250.0000 250.0000 70.0000
v  -0.0000 250.0000 70.0000
v  225.0000 25.0000 70.0000
v  25.0000 25.0000 70.0000
v  225.0000 225.0000 70.0000
v  25.0000 225.0000 70.0000
# 16 vertices

vn 0.0000 0.0000 -1.0000
vn 0.0000 0.0000 1.0000
vn 0.0000 -1.0000 0.0000
vn 1.0000 0.0000 0.0000
vn 0.0000 1.0000 0.0000
vn -1.0000 0.0000 0.0000
# 6 vertex normals

vt 1.0000 0.0000 0.0000
vt 1.0000 1.0000 0.0000
vt 0.0000 1.0000 0.0000
vt 0.0000 0.0000 0.0000
# 4 texture coords

g SM_B_Tower
s 2
f 1/1/1 2/2/1 3/3/1 4/4/1 
s 4
f 5/4/2 6/1/2 7/2/2 8/3/2 
s 8
f 1/4/3 4/1/3 9/2/3 10/3/3 
s 16
f 4/4/4 3/1/4 11/2/4 9/3/4 
s 32
f 3/4/5 2/1/5 12/2/5 11/3/5 
s 64
f 2/4/6 1/1/6 10/2/6 12/3/6 
s off
f 10/4/2 9/1/2 13/1/2 14/4/2 
f 9/1/2 11/2/2 15/2/2 13/1/2 
f 11/2/2 12/3/2 16/3/2 15/2/2 
f 12/3/2 10/4/2 14/4/2 16/3/2 
f 14/4/3 13/1/3 6/1/3 5/4/3 
f 13/1/4 15/2/4 7/2/4 6/1/4 
f 15/2/5 16/3/5 8/3/5 7/2/5 
f 16/3/6 14/4/6 5/4/6 8/3/6 
# 14 polygons

