# 3ds Max Wavefront OBJ Exporter v0.97b - (c)2007 guruware
# File Created: 12.10.2016 01:26:28

#
# object SM_Path_004
#

v  25.0000 0.0000 0.0000
v  25.0000 0.0000 50.0000
v  -0.0000 0.0000 50.0000
v  -0.0000 0.0000 0.0000
v  -0.0000 400.0000 50.0000
v  25.0000 400.0000 50.0000
v  25.0000 400.0000 0.0000
v  -0.0000 400.0000 0.0000
v  400.0000 0.0000 0.0000
v  400.0000 0.0000 50.0000
v  375.0000 0.0000 50.0000
v  375.0000 0.0000 0.0000
v  400.0000 400.0000 50.0000
v  400.0000 400.0000 0.0000
v  375.0000 400.0000 0.0000
v  375.0000 400.0000 50.0000
v  25.0000 0.0000 70.0000
v  -0.0000 0.0000 70.0000
v  -0.0000 400.0000 70.0000
v  25.0420 400.0000 70.0000
v  0.0000 24.9039 0.0000
v  25.0000 24.9039 0.0000
v  0.0000 24.9039 50.0000
v  0.0000 24.9039 70.0000
v  25.0026 24.9039 70.0000
v  25.0000 24.9039 50.0000
v  375.0000 24.9039 50.0000
v  400.0000 24.9039 0.0000
v  400.0000 24.9039 50.0000
v  375.0000 24.9039 0.0000
v  400.0000 24.9039 70.0330
v  375.0000 24.9039 70.0330
v  375.0000 0.0000 70.0000
v  400.0000 0.0000 70.0000
v  25.0000 375.0000 0.0000
v  -0.0000 375.0000 0.0000
v  -0.0000 375.0000 50.0000
v  -0.0000 375.0000 70.0000
v  25.0420 375.0000 70.0000
v  400.0000 375.0000 50.0000
v  400.0000 375.0000 0.0000
v  375.0000 375.0000 0.0000
v  400.0000 400.0000 70.0000
v  375.0000 400.0000 70.0000
v  375.0000 375.0000 70.0330
v  400.0000 375.0000 70.0330
v  25.0000 375.0000 50.0000
v  375.0000 375.0000 50.0000
# 48 vertices

vn 0.0000 -1.0000 0.0000
vn 0.0000 1.0000 0.0000
vn 0.0000 0.0000 -1.0000
vn -1.0000 0.0000 0.0000
vn 0.0000 0.0000 1.0000
vn 1.0000 -0.0001 -0.0001
vn 1.0000 0.0000 0.0000
vn 0.0000 -0.0013 1.0000
vn -1.0000 -0.0000 0.0000
vn 0.0000 0.0013 1.0000
vn 1.0000 -0.0001 -0.0011
vn 1.0000 0.0000 -0.0021
# 12 vertex normals

vt 0.1000 0.0000 0.0000
vt 0.1000 1.0000 0.0000
vt 0.0000 1.0000 0.0000
vt 0.0000 0.0000 0.0000
vt 1.0000 1.0000 0.0000
vt 0.9000 1.0000 0.0000
vt 0.9000 0.0000 0.0000
vt 1.0000 0.0000 0.0000
vt 1.6000 0.0000 0.0000
vt 1.6000 1.0000 0.0000
vt 1.5000 1.0000 0.0000
vt 1.5000 0.0000 0.0000
vt -0.6000 1.0000 0.0000
vt -0.6000 0.0000 0.0000
vt -0.5000 0.0000 0.0000
vt -0.5000 1.0000 0.0000
vt 1.0000 0.0938 0.0000
vt 0.9000 0.0938 0.0000
vt 0.9063 1.0000 0.0000
vt 0.9063 0.0000 0.0000
vt 0.0000 0.0586 0.0000
vt 0.1000 0.0586 0.0000
vt 1.5000 0.0938 0.0000
vt 0.1000 0.0938 0.0000
vt 0.0938 0.0000 0.0000
vt 0.0938 1.0000 0.0000
vt -0.5000 0.0938 0.0000
vt -0.6000 0.0938 0.0000
vt -0.0352 1.0000 0.0000
vt 1.3828 0.0586 0.0000
vt 1.0000 1.6000 0.0000
vt 0.9000 1.6000 0.0000
vt 0.9000 1.5000 0.0000
vt 1.0000 1.5000 0.0000
vt 0.0000 0.9375 0.0000
vt 0.1000 0.9375 0.0000
vt -0.5000 1.6000 0.0000
vt -0.6000 1.6000 0.0000
vt -0.6000 1.5000 0.0000
vt -0.5000 1.5000 0.0000
vt -0.3750 0.9375 0.0000
vt -0.5625 1.0000 0.0000
vt 1.5000 1.5000 0.0000
vt 0.1000 1.5000 0.0000
# 44 texture coords

g SM_Path_004
s 8
f 1/1/1 2/2/1 3/3/1 4/4/1 
s 32
f 5/5/2 6/6/2 7/7/2 8/8/2 
s 8
f 9/9/1 10/10/1 11/11/1 12/12/1 
s 32
f 13/13/2 14/14/2 15/15/2 16/16/2 
s 8
f 12/12/1 11/11/1 2/2/1 1/1/1 
s 32
f 16/16/2 15/15/2 7/7/2 6/6/2 
s off
f 3/4/1 2/1/1 17/1/1 18/4/1 
f 6/2/2 5/3/2 19/3/2 20/2/2 
s 2
f 4/8/3 21/17/3 22/18/3 1/7/3 
s 64
f 3/5/4 23/19/4 21/20/4 4/8/4 
s off
f 18/4/4 24/21/4 23/21/4 3/4/4 
s 4
f 17/1/5 25/22/5 24/21/5 18/4/5 
s off
f 2/1/6 26/22/6 25/22/6 17/1/6 
s 4
f 11/12/5 27/23/5 26/24/5 2/1/5 
s 16
f 9/4/7 28/25/7 29/26/7 10/3/7 
s 2
f 12/15/3 30/27/3 28/28/3 9/14/3 
f 1/7/3 22/18/3 30/27/3 12/15/3 
s off
f 31/29/8 32/30/8 33/12/8 34/3/8 
s 2
f 8/31/3 7/32/3 35/33/3 36/34/3 
s 64
f 5/13/4 8/14/4 36/15/9 37/16/9 
s off
f 19/3/4 5/3/4 37/35/4 38/35/4 
s 4
f 20/2/5 19/3/5 38/35/5 39/36/5 
s 16
f 14/9/7 13/10/7 40/11/7 41/12/7 
s 2
f 15/37/3 14/38/3 41/39/3 42/40/3 
f 7/32/3 15/37/3 42/40/3 35/33/3 
s off
f 43/13/10 44/16/10 45/41/10 46/42/10 
f 13/13/2 16/16/2 44/16/2 43/13/2 
f 40/42/7 13/13/7 43/13/7 46/42/7 
s 2
f 36/34/3 35/33/3 22/18/3 21/17/3 
s 64
f 37/16/9 36/15/9 21/20/4 23/19/4 
s off
f 38/35/9 37/35/9 23/21/9 24/21/9 
s 4
f 39/36/5 38/35/5 24/21/5 25/22/5 
s off
f 47/36/11 39/36/11 25/22/11 26/22/11 
s 4
f 48/43/5 47/44/5 26/24/5 27/23/5 
s 16
f 41/12/7 40/11/7 29/26/7 28/25/7 
s 2
f 42/40/3 41/39/3 28/28/3 30/27/3 
f 35/33/3 42/40/3 30/27/3 22/18/3 
s off
f 46/42/5 45/41/5 32/30/5 31/29/5 
f 11/12/1 10/3/1 34/3/1 33/12/1 
f 10/3/7 29/29/7 31/29/7 34/3/7 
f 27/30/4 11/12/4 33/12/4 32/30/4 
f 6/6/5 47/36/5 48/41/5 16/16/5 
f 20/2/12 39/36/12 47/36/12 6/6/12 
f 45/41/4 44/16/4 16/16/4 48/41/4 
f 48/41/4 27/30/4 32/30/4 45/41/4 
f 29/29/7 40/42/7 46/42/7 31/29/7 
# 46 polygons

