# 3ds Max Wavefront OBJ Exporter v0.97b - (c)2007 guruware
# File Created: 12.10.2016 00:58:15

#
# object SM_Path_003
#

v  0.0000 250.0000 0.0000
v  25.0000 250.0000 0.0000
v  25.0000 0.0000 0.0000
v  0.0000 0.0000 0.0000
v  25.0000 0.0000 50.0000
v  0.0000 0.0000 50.0000
v  400.0000 0.0000 0.0000
v  400.0000 250.0000 0.0000
v  400.0000 250.0000 50.0000
v  400.0000 0.0000 50.0000
v  0.0000 250.0000 50.0000
v  25.0000 250.0000 50.0000
v  0.0000 0.0000 70.0000
v  25.0000 0.0000 70.0000
v  25.0000 250.0000 70.0000
v  0.0000 250.0000 70.0000
v  375.0000 0.0000 0.0000
v  375.0000 250.0000 0.0000
v  375.0000 0.0000 50.0000
v  375.0000 250.0000 50.0000
# 20 vertices

vn 0.0000 0.0000 -1.0000
vn 0.0000 -1.0000 0.0000
vn 1.0000 0.0000 0.0000
vn -1.0000 0.0000 0.0000
vn 0.0000 1.0000 0.0000
vn 0.0000 0.0000 1.0000
# 6 vertex normals

vt 1.0000 1.0000 0.0000
vt 0.9000 1.0000 0.0000
vt 0.9000 0.0000 0.0000
vt 1.0000 0.0000 0.0000
vt 0.1000 0.0000 0.0000
vt 0.1000 1.0000 0.0000
vt 0.0000 1.0000 0.0000
vt 0.0000 0.0000 0.0000
vt -0.6000 1.0000 0.0000
vt -0.6000 0.0000 0.0000
vt -0.5000 0.0000 0.0000
vt -0.5000 1.0000 0.0000
vt 1.6000 0.0000 0.0000
vt 1.6000 1.0000 0.0000
vt 1.5000 1.0000 0.0000
vt 1.5000 0.0000 0.0000
# 16 texture coords

g SM_Path_003
s 2
f 1/1/1 2/2/1 3/3/1 4/4/1 
s 8
f 3/5/2 5/6/2 6/7/2 4/8/2 
s 16
f 7/8/3 8/4/3 9/1/3 10/7/3 
s 64
f 1/8/4 4/4/4 6/1/4 11/7/4 
s 32
f 11/1/5 12/2/5 2/3/5 1/4/5 
s 4
f 13/8/6 14/5/6 15/6/6 16/7/6 
s 2
f 8/9/1 7/10/1 17/11/1 18/12/1 
s 8
f 7/13/2 10/14/2 19/15/2 17/16/2 
s 32
f 9/9/5 8/10/5 18/11/5 20/12/5 
s 4
f 10/13/6 9/14/6 20/15/6 19/16/6 
s 2
f 18/12/1 17/11/1 3/3/1 2/2/1 
s 8
f 17/16/2 19/15/2 5/6/2 3/5/2 
s 32
f 20/12/5 18/11/5 2/3/5 12/2/5 
s 4
f 19/16/6 20/15/6 12/6/6 5/5/6 
s off
f 11/7/4 6/8/4 13/8/4 16/7/4 
f 6/8/2 5/5/2 14/5/2 13/8/2 
f 5/5/3 12/6/3 15/6/3 14/5/3 
f 12/6/5 11/7/5 16/7/5 15/6/5 
# 18 polygons

