# 3ds Max Wavefront OBJ Exporter v0.97b - (c)2007 guruware
# File Created: 12.10.2016 01:39:25

#
# object SM_Path_005
#

v  25.0000 0.0000 0.0000
v  25.0000 0.0000 50.0000
v  -0.0000 0.0000 50.0000
v  -0.0000 0.0000 0.0000
v  -0.0000 400.0000 50.0000
v  25.0000 400.0000 50.0000
v  25.0000 400.0000 0.0000
v  -0.0000 400.0000 0.0000
v  400.0000 0.0000 0.0000
v  400.0000 0.0000 50.0000
v  375.0000 0.0000 50.0000
v  375.0000 0.0000 0.0000
v  400.0000 400.0000 50.0000
v  400.0000 400.0000 0.0000
v  375.0000 400.0000 0.0000
v  375.0000 400.0000 50.0000
v  80.4218 0.0000 0.0000
v  80.4218 0.0000 50.0000
v  80.4218 400.0000 50.0000
v  80.4218 400.0000 0.0000
v  25.0000 0.0000 70.0000
v  -0.0000 0.0000 70.0000
v  -0.0000 400.0000 70.0000
v  25.0210 400.0000 69.9693
v  0.0000 24.9039 0.0000
v  25.0000 24.9039 0.0000
v  0.0000 24.9039 50.0000
v  0.0000 24.9039 70.0000
v  25.0026 24.9039 70.0000
v  25.0000 24.9039 50.0000
v  80.4218 24.9039 50.0000
v  400.0000 24.9039 0.0000
v  400.0000 24.9039 50.0000
v  375.0000 24.9039 0.0000
v  329.6252 0.0000 0.0000
v  329.6252 24.9039 0.0000
v  25.0000 375.0000 0.0000
v  -0.0000 375.0000 0.0000
v  -0.0000 375.0000 50.0000
v  -0.0000 375.0000 70.0000
v  25.0210 375.0000 69.9693
v  400.0000 375.0000 50.0000
v  400.0000 375.0000 0.0000
v  375.0000 375.0000 0.0000
v  80.4218 375.0000 0.0000
v  25.0000 375.0000 50.0000
v  375.0000 375.0000 50.0000
v  329.6252 375.0000 50.0000
v  329.6252 24.9039 50.0000
v  375.0000 24.9039 50.0000
v  80.4218 24.9039 0.0000
v  329.6252 400.0000 70.0000
v  329.6252 375.0000 70.0000
v  375.0000 375.0000 70.0000
v  375.0000 400.0000 70.0000
v  400.0000 400.0000 70.0000
v  400.0000 375.0000 70.0000
v  400.0000 24.9039 70.0000
v  375.0000 24.9039 70.0000
v  375.0000 0.0000 70.0000
v  400.0000 0.0000 70.0000
v  329.6252 0.0000 50.0000
v  329.6252 400.0000 50.0000
v  329.6252 400.0000 0.0000
v  329.6252 375.0000 0.0000
v  80.4218 375.0000 50.0000
v  80.4218 375.0000 69.9385
v  80.4218 400.0000 69.9385
# 68 vertices

vn 0.0000 -1.0000 0.0000
vn 0.0000 1.0000 0.0000
vn 0.0000 0.0000 -1.0000
vn -1.0000 0.0000 0.0000
vn 0.0000 0.0000 1.0000
vn 1.0000 -0.0001 -0.0001
vn 1.0000 0.0000 0.0000
vn -1.0000 -0.0000 0.0000
vn 0.0012 0.0000 1.0000
vn 1.0000 -0.0000 -0.0006
vn 0.0006 0.0000 1.0000
# 11 vertex normals

vt 0.1000 0.0000 0.0000
vt 0.1000 1.0000 0.0000
vt 0.0000 1.0000 0.0000
vt 0.0000 0.0000 0.0000
vt 1.0000 1.0000 0.0000
vt 0.9000 1.0000 0.0000
vt 0.9000 0.0000 0.0000
vt 1.0000 0.0000 0.0000
vt 1.6000 0.0000 0.0000
vt 1.6000 1.0000 0.0000
vt 1.5000 1.0000 0.0000
vt 1.5000 0.0000 0.0000
vt -0.6000 1.0000 0.0000
vt -0.6000 0.0000 0.0000
vt -0.5000 0.0000 0.0000
vt -0.5000 1.0000 0.0000
vt 0.3217 0.0000 0.0000
vt 0.3217 1.0000 0.0000
vt 0.6783 1.0000 0.0000
vt 0.6783 0.0000 0.0000
vt 1.0000 0.0938 0.0000
vt 0.9000 0.0938 0.0000
vt 0.9063 1.0000 0.0000
vt 0.9063 0.0000 0.0000
vt 0.0000 0.0586 0.0000
vt 0.1000 0.0586 0.0000
vt 0.3217 0.0938 0.0000
vt 0.1000 0.0938 0.0000
vt 0.0938 0.0000 0.0000
vt 0.0938 1.0000 0.0000
vt -0.5000 0.0938 0.0000
vt -0.6000 0.0938 0.0000
vt -0.3185 0.0000 0.0000
vt -0.3185 0.0938 0.0000
vt 1.0000 1.6000 0.0000
vt 0.9000 1.6000 0.0000
vt 0.9000 1.5000 0.0000
vt 1.0000 1.5000 0.0000
vt 0.0000 0.9375 0.0000
vt 0.1000 0.9375 0.0000
vt -0.5000 1.6000 0.0000
vt -0.6000 1.6000 0.0000
vt -0.6000 1.5000 0.0000
vt -0.5000 1.5000 0.0000
vt 0.6783 1.6000 0.0000
vt 0.6783 1.5000 0.0000
vt 1.5000 1.5000 0.0000
vt 1.3185 1.5000 0.0000
vt 1.3185 0.0938 0.0000
vt 1.5000 0.0938 0.0000
vt 0.6783 0.0938 0.0000
vt -0.3185 1.0000 0.0000
vt -0.3134 0.9375 0.0000
vt -0.3750 0.9375 0.0000
vt 1.3185 0.0000 0.0000
vt 1.3185 1.0000 0.0000
vt -0.3185 1.6000 0.0000
vt -0.3185 1.5000 0.0000
vt 0.1000 1.5000 0.0000
vt 0.3217 1.5000 0.0000
vt 0.0248 0.9375 0.0000
# 61 texture coords

g SM_Path_005
s 8
f 1/1/1 2/2/1 3/3/1 4/4/1 
s 32
f 5/5/2 6/6/2 7/7/2 8/8/2 
s 8
f 9/9/1 10/10/1 11/11/1 12/12/1 
s 32
f 13/13/2 14/14/2 15/15/2 16/16/2 
s 8
f 17/17/1 18/18/1 2/2/1 1/1/1 
s 32
f 19/19/2 20/20/2 7/7/2 6/6/2 
s off
f 3/4/1 2/1/1 21/1/1 22/4/1 
f 6/2/2 5/3/2 23/3/2 24/2/2 
s 2
f 4/8/3 25/21/3 26/22/3 1/7/3 
s 64
f 3/5/4 27/23/4 25/24/4 4/8/4 
s off
f 22/4/4 28/25/4 27/25/4 3/4/4 
s 4
f 21/1/5 29/26/5 28/25/5 22/4/5 
s off
f 2/1/6 30/26/6 29/26/6 21/1/6 
s 4
f 18/17/5 31/27/5 30/28/5 2/1/5 
s 16
f 9/4/7 32/29/7 33/30/7 10/3/7 
s 2
f 12/15/3 34/31/3 32/32/3 9/14/3 
f 35/33/3 36/34/3 34/31/3 12/15/3 
f 8/35/3 7/36/3 37/37/3 38/38/3 
s 64
f 5/13/4 8/14/4 38/15/8 39/16/8 
s off
f 23/3/4 5/3/4 39/39/4 40/39/4 
s 4
f 24/2/9 23/3/9 40/39/9 41/40/9 
s 16
f 14/9/7 13/10/7 42/11/7 43/12/7 
s 2
f 15/41/3 14/42/3 43/43/3 44/44/3 
f 7/36/3 20/45/3 45/46/3 37/37/3 
f 38/38/3 37/37/3 26/22/3 25/21/3 
s 64
f 39/16/8 38/15/8 25/24/4 27/23/4 
s off
f 40/39/8 39/39/8 27/25/8 28/25/8 
s 4
f 41/40/9 40/39/9 28/25/5 29/26/5 
s off
f 46/40/10 41/40/10 29/26/10 30/26/10 
s 4
f 47/47/5 48/48/5 49/49/5 50/50/5 
s 16
f 43/12/7 42/11/7 33/30/7 32/29/7 
s 2
f 44/44/3 43/43/3 32/32/3 34/31/3 
f 37/37/3 45/46/3 51/51/3 26/22/3 
s off
f 52/52/5 53/53/5 54/54/5 55/16/5 
f 42/11/5 47/47/5 50/50/5 33/30/5 
f 56/13/5 55/16/5 54/47/5 57/11/5 
f 58/30/5 59/50/5 60/11/5 61/10/5 
s 8
f 35/55/1 62/56/1 18/18/1 17/17/1 
s 32
f 63/52/2 64/33/2 20/20/2 19/19/2 
s 4
f 62/55/5 49/49/5 31/27/5 18/17/5 
s 2
f 1/7/3 26/22/3 51/51/3 17/20/3 
f 64/57/3 65/58/3 45/46/3 20/45/3 
s 4
f 46/59/5 30/28/5 31/27/5 66/60/5 
s 2
f 65/58/3 36/34/3 51/51/3 45/46/3 
s off
f 24/6/11 41/40/11 67/61/11 68/19/11 
s 2
f 17/20/3 51/51/3 36/34/3 35/33/3 
s 4
f 66/60/5 31/27/5 49/49/5 48/48/5 
s off
f 19/19/5 66/61/5 48/53/5 63/52/5 
s 8
f 12/12/1 11/11/1 62/56/1 35/55/1 
s 32
f 16/16/2 15/15/2 64/33/2 63/52/2 
s 4
f 11/12/5 50/50/5 49/49/5 62/55/5 
s 2
f 15/41/3 44/44/3 65/58/3 64/57/3 
f 44/44/3 34/31/3 36/34/3 65/58/3 
s off
f 13/13/2 16/16/2 55/16/2 56/13/2 
f 16/16/2 63/52/2 52/52/2 55/16/2 
f 63/52/4 48/53/4 53/53/4 52/52/4 
f 48/53/1 47/54/1 54/54/1 53/53/1 
f 47/47/1 42/11/1 57/11/1 54/47/1 
f 42/11/7 13/13/7 56/13/7 57/11/7 
f 19/19/2 6/6/2 24/6/2 68/19/2 
f 46/40/1 66/61/1 67/61/1 41/40/1 
f 66/61/7 19/19/7 68/19/7 67/61/7 
f 11/11/1 10/10/1 61/10/1 60/11/1 
f 10/10/7 33/30/7 58/30/7 61/10/7 
f 33/30/2 50/50/2 59/50/2 58/30/2 
f 50/50/4 11/11/4 60/11/4 59/50/4 
# 66 polygons

